<svg width="3147" height="722" viewBox="0 0 3147 722" fill="none" xmlns="http://www.w3.org/2000/svg">
<path d="M2375.69 305.122C2353.42 302.049 2333.87 291.781 2319.08 276.991C2318.42 276.33 2317.77 275.669 2317.13 274.993C2328.05 265.735 2340.29 258.866 2353.19 254.432C2361.1 260.418 2370.58 264.525 2381.09 265.974C2397.55 268.243 2413.4 263.554 2425.65 254.169C2438.59 258.508 2450.9 265.258 2461.87 274.436C2440.55 297.209 2408.88 309.691 2375.69 305.122V305.122ZM2473.82 431.734C2474.42 432.339 2475.05 432.92 2475.66 433.501C2484.92 422.588 2491.78 410.345 2496.21 397.442C2487 385.231 2482.42 369.526 2484.66 353.216C2486.13 342.566 2490.34 332.958 2496.47 324.99C2492.13 312.047 2485.37 299.741 2476.2 288.764C2460.05 303.816 2448.76 324.297 2445.52 347.819C2441.11 379.842 2452.55 410.465 2473.82 431.734ZM2316.93 446.468C2327.79 455.725 2339.96 462.619 2352.82 467.076C2365.09 457.667 2380.95 452.963 2397.44 455.232C2408.26 456.72 2418.01 461.043 2426.06 467.331C2438.95 462.961 2451.19 456.179 2462.11 447.001C2447.03 430.723 2426.47 419.348 2402.83 416.092C2369.79 411.539 2338.26 423.885 2316.94 446.468H2316.93ZM2303.97 288.159C2294.71 299.08 2287.85 311.33 2283.42 324.249C2292.63 336.452 2297.22 352.133 2294.97 368.436C2293.51 379.078 2289.31 388.67 2283.19 396.638C2287.52 409.581 2294.28 421.887 2303.45 432.864C2319.59 417.812 2330.87 397.346 2334.11 373.825C2338.64 340.902 2326.4 309.476 2303.96 288.151L2303.97 288.159ZM2389.83 500.636C2312.73 500.644 2250 437.911 2250 360.826C2250 283.741 2312.73 221 2389.82 221C2466.9 221 2529.64 283.733 2529.64 360.826C2529.64 437.919 2466.91 500.652 2389.82 500.652L2389.83 500.636ZM2514.15 360.81C2514.15 292.409 2458.23 236.482 2389.83 236.482C2321.43 236.482 2265.49 292.425 2265.49 360.826C2265.49 429.226 2321.42 485.153 2389.82 485.153C2458.22 485.153 2514.15 429.226 2514.15 360.826L2514.15 360.81Z" fill="#E51339"/>
<path d="M2408.17 340.759H2429.41V334.47H2408.17V328.699H2431.7V322.156H2400.1V352.731H2408.17V340.759Z" fill="#E51339"/>
<path d="M2408.17 387.509H2429.41V381.228H2408.17V375.449H2431.7V368.914H2400.1V399.489H2408.17V387.509Z" fill="#E51339"/>
<path d="M2382.71 392.945H2357.65V386.999H2379.31V380.719H2357.65V375.449H2382.45V368.914H2349.59V399.489H2382.71V392.945Z" fill="#E51339"/>
<path d="M2376.57 341.881C2378.37 341.093 2379.7 340.05 2380.56 338.745C2381.65 337.089 2382.19 335.099 2382.19 332.775V332.52C2382.19 329.233 2381.08 326.685 2378.83 324.878C2376.6 323.064 2373.32 322.164 2369.03 322.164H2349.57V352.739H2357.21V342.972H2368.68L2374.37 352.739H2383.59L2376.56 341.881H2376.57ZM2374.56 332.687C2374.56 333.993 2374.07 334.94 2373.07 335.529C2372.08 336.126 2370.52 336.42 2368.4 336.42H2357.23V328.691H2368.83C2370.87 328.691 2372.33 328.978 2373.22 329.559C2374.11 330.14 2374.56 331.095 2374.56 332.425V332.679V332.687Z" fill="#E51339"/>
<path d="M2594.67 240.726H2564.14V404.766H2584.88V343.704H2592.85C2603.34 343.704 2610.81 341.507 2615.29 337.098C2619.78 332.696 2622.01 325.253 2622.01 314.77V268.522C2622.01 258.19 2620 250.978 2615.97 246.879C2611.94 242.779 2604.84 240.726 2594.67 240.726V240.726ZM2601.73 315.685C2601.73 319.18 2601.05 321.576 2599.68 322.865C2598.31 324.155 2595.88 324.799 2592.38 324.799H2584.87V259.639H2593.75C2596.79 259.639 2598.88 260.323 2600.02 261.692C2601.16 263.061 2601.73 265.489 2601.73 268.984V315.693V315.685Z" fill="#E51339"/>
<path d="M2702.43 321.154C2705.17 317.206 2706.53 311.204 2706.53 303.156V268.522C2706.53 258.19 2704.49 250.978 2700.38 246.879C2696.28 242.779 2689.14 240.726 2678.97 240.726H2650.25V404.766H2670.99V322.061H2672.81L2688.76 404.766H2711.32L2695.14 326.773C2698.25 325.436 2700.74 323.605 2702.44 321.146L2702.43 321.154ZM2686.26 305.433C2686.26 309.078 2685.57 311.626 2684.2 313.066C2682.83 314.515 2680.41 315.231 2676.91 315.231H2670.99V259.639H2678.28C2681.31 259.639 2683.41 260.291 2684.55 261.573C2685.68 262.862 2686.26 265.33 2686.26 268.976V305.433V305.433Z" fill="#E51339"/>
<path d="M2757.34 240.726H2736.61V404.774H2757.34V240.726Z" fill="#E51339"/>
<path d="M2852.12 240.726L2843.69 370.824L2843.46 389.045H2841.64L2841.18 370.824L2832.98 240.726H2794.94L2783.77 404.766H2804.96L2813.84 273.075L2814.53 254.855H2816.35L2817.03 273.075L2825.69 404.766H2859.18L2867.84 273.075L2868.75 254.855H2870.57L2871.26 273.075L2879.92 404.766H2901.33L2889.94 240.726H2852.12Z" fill="#E51339"/>
<path d="M2948.27 323.199H2967.17V305.202H2948.27V260.092H2972.41V240.726H2927.53V404.766H2973.78V385.399H2948.27V323.199Z" fill="#E51339"/>
<path d="M3053.06 321.154C3055.8 317.206 3057.16 311.204 3057.16 303.156V268.522C3057.16 258.19 3055.12 250.978 3051.01 246.879C3046.91 242.779 3039.77 240.726 3029.6 240.726H3000.88V404.766H3021.62V322.061H3023.44L3039.4 404.766H3061.95L3045.77 326.773C3048.88 325.436 3051.38 323.605 3053.07 321.146L3053.06 321.154ZM3036.89 305.433C3036.89 309.078 3036.2 311.626 3034.83 313.066C3033.47 314.515 3031.04 315.231 3027.54 315.231H3021.62V259.639H3028.91C3031.94 259.639 3034.04 260.291 3035.18 261.573C3036.31 262.862 3036.89 265.33 3036.89 268.976V305.433V305.433Z" fill="#E51339"/>
<path d="M3095.9 240.726L3082.45 404.774H3102.96L3105.27 373.101H3122.8L3125.06 404.774H3146.94L3133.49 240.726H3095.9V240.726ZM3106.62 354.642L3112.53 273.76L3113.21 255.078H3115.03L3115.72 273.76L3121.49 354.642H3106.63H3106.62Z" fill="#E51339"/>
<path d="M3106.25 479.78H3095.46V436.94C3095.8 436.924 3096.1 436.9 3096.41 436.9C3102.52 436.9 3108.62 436.908 3114.72 436.884C3115.41 436.884 3115.77 437.075 3116.1 437.688C3121.6 447.932 3127.14 458.161 3132.63 468.405C3133.64 470.292 3134.5 472.258 3135.43 474.192C3135.59 474.527 3135.78 474.845 3135.94 475.172C3136.03 475.156 3136.12 475.132 3136.21 475.116V436.955H3147V479.749C3146.78 479.772 3146.51 479.82 3146.24 479.82C3140.07 479.82 3133.9 479.82 3127.72 479.836C3127.08 479.836 3126.73 479.653 3126.41 479.064C3120.84 468.692 3115.24 458.344 3109.68 447.972C3108.71 446.181 3107.91 444.303 3107.02 442.472C3106.87 442.153 3106.68 441.851 3106.51 441.54C3106.42 441.572 3106.34 441.604 3106.25 441.636V479.78V479.78Z" fill="#E51339"/>
<path d="M2747.92 436.932H2793.9V446.205H2758.7V453.369H2789.55V462.284H2758.74V470.443H2794.28V479.749H2747.92V436.932V436.932Z" fill="#E51339"/>
<path d="M2667.09 436.972V446.181H2631.87V453.385H2662.66V462.3H2631.87V470.444H2667.45V479.741H2621.02V436.972H2667.09V436.972Z" fill="#E51339"/>
<path d="M2682.72 479.78V436.979C2682.99 436.947 2683.23 436.9 2683.46 436.9C2691.96 436.9 2700.47 436.86 2708.97 436.932C2713.22 436.963 2717.41 437.552 2721.36 439.24C2728.41 442.241 2732.04 447.717 2732.73 455.208C2733.1 459.259 2732.94 463.287 2731.5 467.156C2729.18 473.357 2724.49 476.923 2718.27 478.499C2715.36 479.239 2712.3 479.693 2709.3 479.749C2700.66 479.916 2692.01 479.812 2683.37 479.82C2683.19 479.82 2683.03 479.804 2682.72 479.78H2682.72ZM2693.45 446.428V470.499C2698.21 470.499 2702.9 470.539 2707.58 470.475C2709.16 470.459 2710.75 470.316 2712.3 470.029C2718.31 468.923 2721.58 465.42 2722.02 459.514C2722.34 455.144 2721.35 451.236 2717.39 448.649C2715.38 447.335 2713.12 446.507 2710.74 446.452C2705 446.324 2699.27 446.412 2693.45 446.412V446.428Z" fill="#E51339"/>
<path d="M2820.39 466.264V479.748H2809.63V436.899C2809.99 436.899 2810.36 436.899 2810.74 436.899C2819.24 436.899 2827.74 436.891 2836.23 436.899C2839.84 436.899 2843.41 437.217 2846.82 438.563C2852.17 440.672 2855.24 445.026 2855.31 450.749C2855.34 452.429 2855.21 454.133 2854.89 455.78C2854.19 459.362 2852.18 462.061 2848.95 463.836C2848.52 464.075 2848.09 464.305 2847.54 464.6C2850.78 469.631 2854.01 474.63 2857.36 479.827C2856.77 479.827 2856.36 479.827 2855.97 479.827C2852.44 479.827 2848.91 479.812 2845.39 479.843C2844.64 479.843 2844.2 479.676 2843.8 478.976C2841.47 474.892 2839.08 470.841 2836.67 466.797C2836.5 466.494 2836.07 466.152 2835.76 466.152C2830.75 466.12 2825.74 466.136 2820.74 466.152C2820.67 466.152 2820.61 466.2 2820.41 466.28L2820.39 466.264ZM2820.46 456.831C2820.66 456.863 2820.8 456.903 2820.93 456.903C2826.19 456.903 2831.44 456.934 2836.69 456.879C2838.59 456.855 2840.5 456.68 2842.24 455.756C2844.3 454.658 2844.66 452.795 2844.5 450.718C2844.34 448.871 2843.47 447.462 2841.65 446.921C2840.39 446.547 2839.04 446.276 2837.72 446.26C2832.26 446.188 2826.79 446.228 2821.32 446.228C2821.05 446.228 2820.78 446.228 2820.46 446.228V456.839V456.831Z" fill="#E51339"/>
<path d="M3052.28 480.895C3046.23 480.831 3040.3 479.852 3034.89 476.724C3028.92 473.269 3025.2 468.23 3024.3 461.305C3023.12 452.255 3027.16 444.31 3035.23 439.845C3041.45 436.398 3048.2 435.562 3055.18 435.945C3059.98 436.207 3064.61 437.202 3068.9 439.447C3074.68 442.48 3078.78 446.929 3080.16 453.441C3082.52 464.601 3077.37 474.001 3066.64 478.356C3062.07 480.218 3057.28 480.855 3052.29 480.895H3052.28ZM3052.74 471.582C3056.26 471.645 3059.98 471.072 3063.41 469.186C3068.39 466.455 3070.67 461.52 3069.61 455.932C3068.67 450.981 3065.41 448.139 3060.93 446.46C3057.16 445.051 3053.21 444.947 3049.25 445.29C3046.09 445.56 3043.13 446.46 3040.41 448.171C3033.12 452.764 3033 464.33 3040.84 468.867C3044.43 470.953 3048.33 471.621 3052.75 471.574L3052.74 471.582Z" fill="#E51339"/>
<path d="M2984.73 444.931C2982.57 447.208 2980.42 449.476 2978.25 451.761C2977.47 451.148 2976.75 450.583 2976.02 450.033C2971.62 446.762 2966.63 445.305 2961.21 445.162C2957.25 445.058 2953.31 445.21 2949.54 446.65C2945.82 448.075 2942.67 450.24 2941.34 454.181C2939.47 459.721 2941 465.691 2947.23 469.042C2949.98 470.522 2952.95 471.247 2956.02 471.478C2961.28 471.868 2966.49 471.525 2971.31 469.177C2973.86 467.935 2976.2 466.296 2978.83 464.728C2980.77 466.773 2982.94 469.058 2985.24 471.462C2984.58 472.075 2983.98 472.688 2983.33 473.237C2978.49 477.296 2972.84 479.517 2966.65 480.377C2959.98 481.3 2953.35 481.141 2946.85 479.167C2941.43 477.519 2936.74 474.725 2933.35 470.045C2927.76 462.355 2927.8 448.21 2939.53 440.879C2943.98 438.093 2948.87 436.637 2954.04 436.111C2960.34 435.474 2966.58 435.817 2972.67 437.727C2976.86 439.041 2980.6 441.166 2983.94 444.016C2984.15 444.199 2984.36 444.39 2984.56 444.589C2984.61 444.636 2984.62 444.708 2984.73 444.923V444.931Z" fill="#E51339"/>
<path d="M2865.93 479.82C2866.89 477.719 2867.75 475.809 2868.62 473.906C2874.14 461.847 2879.67 449.795 2885.17 437.728C2885.46 437.075 2885.81 436.876 2886.51 436.884C2891.62 436.916 2896.74 436.916 2901.85 436.884C2902.5 436.884 2902.85 437.059 2903.13 437.672C2909.04 450.631 2914.97 463.582 2920.89 476.533C2921.37 477.576 2921.84 478.626 2922.39 479.82C2920.75 479.82 2919.29 479.82 2917.81 479.82C2915.77 479.82 2913.72 479.781 2911.68 479.844C2910.9 479.868 2910.58 479.574 2910.3 478.897C2909.47 476.891 2908.53 474.917 2907.69 472.919C2907.45 472.346 2907.13 472.155 2906.51 472.155C2898.05 472.171 2889.58 472.179 2881.12 472.155C2880.44 472.155 2880.12 472.394 2879.88 472.991C2879.04 474.997 2878.13 476.971 2877.28 478.977C2877.02 479.598 2876.69 479.86 2875.96 479.852C2872.68 479.797 2869.41 479.828 2865.92 479.828L2865.93 479.82ZM2903.71 463.9C2903.6 463.606 2903.53 463.407 2903.45 463.216C2900.45 456.187 2897.44 449.158 2894.43 442.138C2894.33 441.923 2894 441.588 2893.9 441.628C2893.65 441.716 2893.39 441.955 2893.29 442.201C2891.26 446.938 2889.26 451.69 2887.22 456.426C2886.16 458.901 2885.05 461.353 2883.93 463.9H2903.71Z" fill="#E51339"/>
<path d="M2603.77 454.117V463.057H2573.5V479.765H2562.75V436.979H2606.96V446.205H2573.54V454.125H2603.77V454.117Z" fill="#E51339"/>
<path d="M3009.39 479.789H2998.7V436.979H3009.39V479.789Z" fill="#E51339"/>
<path d="M3048.02 430.372C3050.22 427.037 3052.27 423.941 3054.35 420.86C3054.5 420.629 3054.9 420.438 3055.19 420.43C3059.16 420.406 3063.14 420.414 3067.3 420.414C3067.07 420.725 3066.93 420.948 3066.76 421.131C3063.92 424.02 3061.09 426.91 3058.24 429.775C3057.98 430.03 3057.63 430.341 3057.31 430.348C3054.29 430.388 3051.28 430.372 3048.02 430.372Z" fill="#E51339"/>
<line x1="2118.21" y1="222" x2="2118.21" y2="499" stroke="#E51339" stroke-width="0.5"/>
<path d="M637.574 347.263L703.261 227.39H739.987L805.674 347.263H768.947L758.065 327.238H685.292L674.41 347.263H637.574ZM747.061 307.373L721.624 260.783L696.187 307.373H747.061Z" fill="#E51339"/>
<path d="M849.45 227.404V327.239H949.429V347.263H813.703V227.39L849.45 227.404Z" fill="#E51339"/>
<path d="M1036.19 225C1073.38 225 1104.61 242.637 1115.25 266.959H1075.97C1071.4 260.286 1065.42 254.855 1058.51 251.106C1051.6 247.357 1043.95 245.397 1036.19 245.386C1011.07 245.386 990.786 264.196 990.786 287.346C990.786 310.496 1011.07 329.305 1036.19 329.305C1051.64 329.305 1067.26 319.539 1076.11 307.718H1040.75V287.346H1117.71V348.476H1088.59V335.802C1074.99 344.367 1056.54 349.677 1036.26 349.677C989.889 349.677 952.373 321.94 952.373 287.461C952.373 252.982 989.821 225 1036.19 225Z" fill="#E51339"/>
<path d="M1267.85 227.401V247.44H1173.83V277.405H1258.36V297.271H1173.83V327.25H1267.85V347.274H1138.09V227.401H1267.85Z" fill="#E51339"/>
<path d="M1273.49 287.519C1273.49 253.084 1311.17 225 1357.53 225C1399.56 225 1434.02 247.615 1440.12 277.087H1401.45C1396.01 258.929 1378.1 245.401 1357.49 245.401C1332.38 245.401 1312.1 264.21 1312.1 287.36C1312.1 310.51 1332.38 329.32 1357.49 329.32C1378.1 329.32 1395.97 315.791 1401.45 297.488H1440.08C1433.97 327.12 1399.52 349.721 1357.49 349.721C1311.17 349.677 1273.49 321.94 1273.49 287.519Z" fill="#E51339"/>
<path d="M1456.85 227.401H1492.59V347.274H1456.84L1456.85 227.401Z" fill="#E51339"/>
<path d="M1603.2 227.401C1633.12 227.401 1657.46 248.121 1657.46 273.701C1657.46 288.937 1647.8 303.839 1632.83 312.911H1633.46L1651.98 347.332H1616.61C1616.61 347.332 1614.37 344.598 1600.52 319.77L1549.16 319.943H1550.76V347.332H1515.03V227.459L1603.2 227.401ZM1550.71 299.846H1593.7C1607.86 299.846 1619.3 288.025 1619.3 273.643C1619.3 259.261 1607.86 247.44 1593.7 247.44H1550.71V299.846Z" fill="#E51339"/>
<path d="M1664.04 347.274L1729.73 227.401H1766.45L1832.14 347.274H1795.41L1784.53 327.25H1711.76L1700.81 347.274H1664.04ZM1773.53 307.384L1748.09 260.795L1722.65 307.384H1773.53Z" fill="#E51339"/>
<path d="M1829.07 312.871H1868.83C1868.83 321.263 1884.61 328.121 1901.84 328.121C1919.08 328.121 1936.02 321.249 1936.02 312.871C1936.02 300.37 1916.22 297.115 1894.48 293.7C1866.15 289.07 1834.63 284.108 1834.63 261.869C1834.63 241.497 1863.46 225.046 1901.94 225.046C1940.42 225.046 1967.13 241.497 1967.13 261.869H1929.62C1929.62 253.477 1918.52 244.911 1901.61 244.911C1884.7 244.911 1872.15 253.477 1872.15 261.869C1872.15 272.489 1889.83 274.891 1910.14 277.626C1939.77 281.561 1974.71 286.307 1974.71 312.727C1974.71 333.113 1940.25 349.723 1901.94 349.723C1863.62 349.723 1829.07 333.243 1829.07 312.871Z" fill="#E51339"/>
<path d="M644.17 444.239C644.17 418.644 670.518 397.751 702.973 397.751C732.069 397.751 756.268 414.564 760.811 436.47H739.142C735.062 422.97 720.453 412.9 702.973 412.9C682.243 412.9 665.607 426.92 665.607 444.109C665.607 461.298 682.243 475.318 702.973 475.318C720.453 475.318 735.062 465.262 739.142 451.633H760.77C756.227 473.669 732.028 490.481 702.933 490.481C670.518 490.481 644.17 469.848 644.17 444.239Z" fill="#E51339"/>
<path d="M793.641 399.532V473.8H868.128V488.703H774.475V399.532H793.641Z" fill="#E51339"/>
<path d="M880.58 399.532H901.65V444.53C901.65 461.603 914.709 474.205 935.072 474.205C955.435 474.205 968.48 461.603 968.48 444.53V399.532H989.672V444.53C989.672 469.879 967.283 490.512 935.072 490.512C902.861 490.512 880.58 470.125 880.58 444.776V399.532Z" fill="#E51339"/>
<path d="M1008.24 399.532H1086.81C1091.6 399.515 1096.23 401.405 1099.78 404.83C1103.33 408.256 1105.55 412.968 1106 418.044C1106.45 423.12 1105.1 428.191 1102.21 432.262C1099.33 436.333 1095.11 439.109 1090.4 440.045C1096.44 440.144 1102.19 442.764 1106.43 447.339C1110.66 451.914 1113.04 458.076 1113.04 464.497C1113.05 470.898 1110.67 477.042 1106.43 481.58C1102.18 486.119 1096.42 488.68 1090.4 488.703H1008.24V399.532ZM1076.35 432.955C1077.52 433.005 1078.69 432.802 1079.78 432.36C1080.87 431.918 1081.87 431.245 1082.72 430.382C1083.56 429.52 1084.23 428.485 1084.69 427.339C1085.15 426.194 1085.39 424.962 1085.39 423.717C1085.39 422.472 1085.15 421.24 1084.69 420.095C1084.23 418.949 1083.56 417.914 1082.72 417.052C1081.87 416.189 1080.87 415.516 1079.78 415.074C1078.69 414.632 1077.52 414.429 1076.35 414.479H1027.38V432.955H1076.35ZM1079.82 473.844C1083.07 473.844 1086.18 472.472 1088.48 470.03C1090.77 467.588 1092.06 464.275 1092.06 460.822C1092.06 457.368 1090.77 454.056 1088.48 451.614C1086.18 449.172 1083.07 447.8 1079.82 447.8H1027.38V473.844H1079.82Z" fill="#E51339"/>
<path d="M1289.03 493.724V404.554H1378.13V419.456H1308.19V441.753H1371.07V456.525H1308.19V493.724H1289.03Z" fill="#E51339"/>
<path d="M1411.42 404.566V449.535C1411.42 466.608 1424.48 479.211 1444.83 479.211C1465.18 479.211 1478.25 466.608 1478.25 449.535V404.566H1499.39V449.535C1499.39 474.884 1477 495.517 1444.78 495.517C1412.55 495.517 1390.29 475.13 1390.29 449.781V404.566H1411.42ZM1440.52 376.034H1461.48L1447.59 398.316H1426.63L1440.52 376.034Z" fill="#E51339"/>
<path d="M1513.35 419.48V404.577H1611.29V419.48H1571.84V493.734H1552.67V419.466L1513.35 419.48Z" fill="#E51339"/>
<path d="M1628.07 404.577H1706.64C1711.44 404.56 1716.06 406.45 1719.61 409.875C1723.16 413.3 1725.38 418.013 1725.83 423.089C1726.28 428.165 1724.93 433.236 1722.04 437.307C1719.16 441.378 1714.94 444.154 1710.23 445.09C1716.27 445.188 1722.03 447.808 1726.26 452.383C1730.5 456.958 1732.87 463.121 1732.87 469.542C1732.87 475.94 1730.5 482.081 1726.25 486.616C1722.01 491.151 1716.25 493.711 1710.23 493.734H1628.07V404.577ZM1696.22 437.957C1697.39 438.006 1698.56 437.804 1699.65 437.362C1700.75 436.919 1701.75 436.247 1702.59 435.384C1703.43 434.521 1704.1 433.487 1704.56 432.341C1705.02 431.196 1705.26 429.963 1705.26 428.718C1705.26 427.474 1705.02 426.242 1704.56 425.096C1704.1 423.951 1703.43 422.915 1702.59 422.053C1701.75 421.19 1700.75 420.517 1699.65 420.075C1698.56 419.633 1697.39 419.431 1696.22 419.48H1647.25V437.957H1696.22ZM1699.69 478.845C1702.94 478.845 1706.05 477.473 1708.35 475.031C1710.64 472.589 1711.93 469.277 1711.93 465.824C1711.93 462.37 1710.64 459.058 1708.35 456.616C1706.05 454.174 1702.94 452.802 1699.69 452.802H1647.24V478.845H1699.69Z" fill="#E51339"/>
<path d="M1800.01 402.796C1832.46 402.796 1858.81 423.559 1858.81 449.096C1858.81 474.633 1832.46 495.469 1800.01 495.469C1767.55 495.469 1741.33 474.836 1741.33 449.169C1741.33 423.501 1767.71 402.796 1800.01 402.796ZM1800.01 480.363C1820.72 480.363 1837.37 466.357 1837.37 449.154C1837.37 431.95 1820.72 417.945 1800.01 417.945C1779.29 417.945 1762.76 431.965 1762.76 449.154C1762.76 466.343 1779.45 480.363 1800.01 480.363V480.363Z" fill="#E51339"/>
<path d="M1891.14 404.568V478.836H1965.63V493.724H1871.97V404.554L1891.14 404.568Z" fill="#E51339"/>
<path d="M1163.23 466.063V429.109H1185.66C1197.26 429.109 1206.65 437.4 1206.65 447.586C1206.65 457.772 1197.26 466.063 1185.66 466.063H1163.23ZM1185.66 459.884C1187.24 460 1188.83 459.768 1190.33 459.203C1191.83 458.637 1193.2 457.75 1194.36 456.597C1195.52 455.443 1196.45 454.048 1197.08 452.498C1197.72 450.948 1198.04 449.276 1198.04 447.586C1198.04 445.896 1197.72 444.225 1197.08 442.675C1196.45 441.125 1195.52 439.73 1194.36 438.576C1193.2 437.423 1191.83 436.536 1190.33 435.97C1188.83 435.404 1187.24 435.172 1185.66 435.288H1171.16V459.884H1185.66Z" fill="#E51339"/>
<path d="M1212.55 466.063V429.109H1249.48V435.288H1220.53V444.533H1246.58V450.654H1220.53V459.884H1249.52V466.063H1212.55Z" fill="#E51339"/>
<g clip-path="url(#clip0_2411_2900)">
<path d="M371.976 53.7159L367.141 45.3494C367.141 45.3494 361.213 63.3975 348.248 70.8785L356.82 69.1206C356.82 69.1206 351.484 77.3503 343.51 80.4755C341.832 81.1345 339.996 81.2764 338.237 80.8832C336.478 80.4899 334.876 79.5795 333.637 78.2684C328.66 73.0887 325.866 66.1861 325.838 58.9962C325.838 58.9962 314.419 71.0999 304.748 69.342C299.244 68.3393 293.329 68.4629 295.747 49.5359L302.116 54.3735C302.116 54.3735 305.632 36.1431 315.297 25.9861L304.748 28.6231L302.993 14.9503L293.55 23.753L284.321 16.2655C284.321 16.2655 287.395 36.078 280.805 48.1687L289.15 47.9472C289.15 47.9472 283.223 60.9299 270.699 60.9299C258.175 60.9299 253.151 42.0029 253.151 42.0029C253.151 42.0029 244.143 55.2133 233.16 55.2133C222.176 55.2133 216.911 37.3867 216.911 37.3867L226.14 43.9886C226.14 43.9886 226.14 14.6899 231.632 10.0932L221.526 14.2731L213.395 -0.0507812L205.258 14.2731L195.152 10.0932C200.644 14.7159 200.644 43.9886 200.644 43.9886L209.873 37.3867C209.873 37.3867 204.595 55.2133 193.625 55.2133C182.654 55.2133 173.633 42.0029 173.633 42.0029C173.633 42.0029 168.583 60.9299 156.085 60.9299C143.587 60.9299 137.634 47.9472 137.634 47.9472L145.979 48.1687C139.389 36.065 142.463 16.2655 142.463 16.2655L133.241 23.753L123.791 14.9503L122.036 28.6231L111.488 25.9861C121.159 36.1105 124.668 54.3735 124.668 54.3735L131.044 49.5359C133.462 68.4629 127.547 68.3393 122.036 69.342C112.365 71.0999 100.946 58.9962 100.946 58.9962C100.92 66.1827 98.1264 73.0819 93.1471 78.2553C91.9078 79.5722 90.3031 80.4869 88.5399 80.8814C86.7768 81.276 84.9362 81.1323 83.2553 80.469C75.2873 77.3372 69.9645 69.1206 69.9645 69.1206L78.5304 70.8785C65.571 63.3975 59.6372 45.3494 59.6372 45.3494L54.8018 53.7159C47.5552 48.4356 35.0312 50.8511 35.0312 50.8511C41.4005 52.3941 55.7571 67.2259 62.7113 77.9233C68.0601 86.1465 85.3026 90.6846 93.0302 88.0477C102.695 84.7467 105.112 70.6637 105.112 70.6637C105.112 70.6637 114.815 80.2868 123.784 78.1447C133.013 75.944 138.732 63.6189 138.732 63.6189C138.732 63.6189 145.758 72.6429 159.38 70.2209C172.457 67.8965 175.2 54.8162 175.2 54.8162C175.2 54.8162 184.428 65.8195 194.535 65.1619C204.017 64.5108 213.129 50.4345 213.435 49.9657C213.746 50.454 222.852 64.5434 232.334 65.1619C242.44 65.813 251.663 54.8162 251.663 54.8162C251.663 54.8162 254.405 67.8965 267.482 70.2209C281.13 72.6429 288.13 63.6189 288.13 63.6189C288.13 63.6189 293.843 75.944 303.078 78.1447C312.047 80.2868 321.75 70.6637 321.75 70.6637C321.75 70.6637 324.168 84.7467 333.832 88.0477C341.56 90.652 357.268 86.7845 364.151 77.9233C371.95 67.851 385.462 52.3941 391.831 50.8511C391.76 50.8511 379.223 48.4356 371.976 53.7159Z" fill="#DDA820"/>
<path d="M363.261 103.34C345.369 95.2148 281.286 68.416 214.384 68.416H212.934C146.038 68.416 81.9493 95.2148 64.0635 103.34C62.7507 103.937 61.7275 105.031 61.2183 106.382C60.7091 107.733 60.7553 109.231 61.3468 110.548V110.548C61.9328 111.861 63.0131 112.888 64.3522 113.407C65.6914 113.925 67.181 113.892 68.496 113.315C90.9507 103.549 150.73 80.357 212.941 80.357H214.39C276.607 80.357 336.387 103.536 358.835 113.315C360.15 113.89 361.639 113.923 362.978 113.404C364.316 112.886 365.397 111.86 365.984 110.548V110.548C366.575 109.23 366.62 107.731 366.11 106.38C365.599 105.029 364.575 103.936 363.261 103.34V103.34Z" fill="#DDA820"/>
<path d="M352.192 125.061C326.897 114.454 271.166 93.8085 212.517 94.3034C153.868 93.789 97.9557 114.487 72.6608 125.061C71.9838 125.345 71.3704 125.762 70.8564 126.286C70.3424 126.811 69.9381 127.434 69.6675 128.117C69.3969 128.801 69.2653 129.532 69.2805 130.267C69.2956 131.002 69.4572 131.727 69.7557 132.398L69.9766 132.62C70.2485 133.252 70.6436 133.823 71.1388 134.3C71.634 134.777 72.2194 135.15 72.8604 135.398C73.5015 135.645 74.1854 135.762 74.8721 135.741C75.5588 135.72 76.2344 135.562 76.8593 135.276C103.759 124.358 157.261 106.322 212.452 105.45C267.644 106.322 321.086 124.332 347.987 135.276C348.613 135.558 349.288 135.712 349.974 135.731C350.66 135.75 351.343 135.632 351.984 135.385C352.624 135.138 353.209 134.767 353.706 134.292C354.202 133.818 354.6 133.249 354.876 132.62L355.097 132.398C355.395 131.727 355.557 131.002 355.572 130.267C355.587 129.532 355.456 128.801 355.185 128.117C354.914 127.434 354.51 126.811 353.996 126.286C353.482 125.762 352.869 125.345 352.192 125.061V125.061Z" fill="#DDA820"/>
<path d="M127.306 104.734C156.553 96.7907 185.149 92.7606 212.251 92.7606H213.863C240.958 92.7606 269.535 96.7907 298.808 104.734C317.233 109.781 335.296 116.069 352.874 123.557L356.637 114.201C339.59 106.459 280.278 81.959 213.544 81.959H212.57C145.836 81.959 86.524 106.459 69.4766 114.201L73.2395 123.557C90.819 116.072 108.882 109.784 127.306 104.734V104.734Z" fill="#DDA820"/>
<path d="M303.499 96.9742C296.552 95.0209 289.247 93.1197 281.655 91.4139C281.023 91.2703 280.359 91.3771 279.803 91.7119C279.248 92.0468 278.842 92.5838 278.672 93.2109L277.983 95.8152C277.897 96.1443 277.878 96.4875 277.927 96.8241C277.977 97.1608 278.095 97.4838 278.273 97.7736C278.451 98.0634 278.686 98.3139 278.963 98.51C279.241 98.7061 279.555 98.8437 279.888 98.9144C287.368 100.542 294.589 102.352 301.472 104.247C301.791 104.335 302.124 104.36 302.453 104.319C302.782 104.278 303.099 104.172 303.387 104.007C303.674 103.842 303.927 103.622 304.129 103.359C304.331 103.097 304.48 102.796 304.565 102.476L305.215 100.041C305.388 99.4063 305.305 98.7294 304.984 98.1557C304.663 97.5821 304.13 97.1577 303.499 96.9742V96.9742Z" fill="#343E89"/>
<path d="M213.065 82.5312L204.193 87.4014L213.136 92.2064L221.93 87.4014L213.065 82.5312Z" fill="#B72520"/>
<path d="M122.692 96.9531C129.6 94.9998 136.866 93.1247 144.412 91.4253C145.06 91.2869 145.737 91.402 146.304 91.7469C146.87 92.0918 147.284 92.6406 147.46 93.281L148.11 95.7485C148.196 96.086 148.213 96.4374 148.161 96.7817C148.109 97.126 147.989 97.4564 147.807 97.7533C147.625 98.0501 147.386 98.3073 147.103 98.5099C146.82 98.7124 146.5 98.8561 146.16 98.9324C138.732 100.547 131.55 102.344 124.713 104.226C124.052 104.402 123.349 104.31 122.755 103.97C122.161 103.63 121.725 103.069 121.541 102.409L120.924 100.104C120.754 99.452 120.844 98.7592 121.173 98.1715C121.503 97.5838 122.047 97.147 122.692 96.9531Z" fill="#343E89"/>
<path d="M373.828 72.6302C377.837 72.6302 381.088 69.3742 381.088 65.3576C381.088 61.341 377.837 58.085 373.828 58.085C369.819 58.085 366.568 61.341 366.568 65.3576C366.568 69.3742 369.819 72.6302 373.828 72.6302Z" fill="#343E89"/>
<path d="M325.35 64.1775C328.204 64.1775 330.517 61.8601 330.517 59.0014C330.517 56.1426 328.204 53.8252 325.35 53.8252C322.497 53.8252 320.184 56.1426 320.184 59.0014C320.184 61.8601 322.497 64.1775 325.35 64.1775Z" fill="#D6D6D6"/>
<path d="M296.143 42.2376C300.152 42.2376 303.402 38.9816 303.402 34.965C303.402 30.9485 300.152 27.6924 296.143 27.6924C292.133 27.6924 288.883 30.9485 288.883 34.965C288.883 38.9816 292.133 42.2376 296.143 42.2376Z" fill="#343E89"/>
<path d="M253.235 47.1979C256.089 47.1979 258.402 44.8805 258.402 42.0218C258.402 39.1631 256.089 36.8457 253.235 36.8457C250.382 36.8457 248.068 39.1631 248.068 42.0218C248.068 44.8805 250.382 47.1979 253.235 47.1979Z" fill="#D6D6D6"/>
<path d="M213.726 28.9798C217.736 28.9798 220.986 25.7238 220.986 21.7072C220.986 17.6906 217.736 14.4346 213.726 14.4346C209.717 14.4346 206.467 17.6906 206.467 21.7072C206.467 25.7238 209.717 28.9798 213.726 28.9798Z" fill="#343E89"/>
<path d="M173.64 47.1979C176.493 47.1979 178.806 44.8805 178.806 42.0218C178.806 39.1631 176.493 36.8457 173.64 36.8457C170.786 36.8457 168.473 39.1631 168.473 42.0218C168.473 44.8805 170.786 47.1979 173.64 47.1979Z" fill="#D6D6D6"/>
<path d="M131.519 42.2376C135.529 42.2376 138.779 38.9816 138.779 34.965C138.779 30.9485 135.529 27.6924 131.519 27.6924C127.51 27.6924 124.26 30.9485 124.26 34.965C124.26 38.9816 127.51 42.2376 131.519 42.2376Z" fill="#343E89"/>
<path d="M101.499 64.1775C104.353 64.1775 106.666 61.8601 106.666 59.0014C106.666 56.1426 104.353 53.8252 101.499 53.8252C98.6453 53.8252 96.332 56.1426 96.332 59.0014C96.332 61.8601 98.6453 64.1775 101.499 64.1775Z" fill="#D6D6D6"/>
<path d="M50.9803 72.6302C54.9897 72.6302 58.2399 69.3742 58.2399 65.3576C58.2399 61.341 54.9897 58.085 50.9803 58.085C46.9709 58.085 43.7207 61.341 43.7207 65.3576C43.7207 69.3742 46.9709 72.6302 50.9803 72.6302Z" fill="#343E89"/>
<path d="M0 141.717L213.57 721.235L425.925 142.941L0 141.717ZM213.57 680.887L90.196 340.09H336.932L213.57 680.887ZM85.4255 326.951L21.6619 154.563H405.485L341.41 326.951H85.4255Z" fill="#DDA820"/>
<path d="M21.6621 154.555L85.4323 326.943H341.417L405.486 154.555H21.6621Z" fill="white"/>
<path d="M237.48 224.547V248.924H222.168V229.287C222.174 227.086 221.316 224.97 219.779 223.397C218.243 221.823 216.15 220.918 213.953 220.875H213.557C211.395 220.921 209.337 221.815 207.827 223.365C206.316 224.915 205.473 226.997 205.478 229.163V248.93H190.283V224.788C190.294 221.686 191.226 218.658 192.961 216.089C202.164 202.351 196.86 166.438 196.86 166.438H205.036V170.995H209.449V166.438H218.275V170.995H222.415V166.574H230.689C227.134 198.334 231.813 211.323 234.978 216.285C236.583 218.743 237.451 221.61 237.48 224.547Z" fill="#C76432"/>
<path d="M222.169 229.288V248.885H205.479V229.157C205.473 226.991 206.316 224.909 207.827 223.359C209.338 221.809 211.395 220.915 213.557 220.869H213.954C216.152 220.912 218.245 221.818 219.782 223.393C221.319 224.968 222.176 227.085 222.169 229.288V229.288Z" fill="#1D1E1C"/>
<path d="M223.339 188.413H218.465C218.411 188.413 218.367 188.457 218.367 188.511V198.231C218.367 198.285 218.411 198.329 218.465 198.329H223.339C223.393 198.329 223.437 198.285 223.437 198.231V188.511C223.437 188.457 223.393 188.413 223.339 188.413Z" fill="#1D1E1C"/>
<path d="M208.71 188.413H203.836C203.782 188.413 203.738 188.457 203.738 188.511V198.231C203.738 198.285 203.782 198.329 203.836 198.329H208.71C208.764 198.329 208.808 198.285 208.808 198.231V188.511C208.808 188.457 208.764 188.413 208.71 188.413Z" fill="#1D1E1C"/>
<path d="M225.256 285.71C225.256 285.671 221.955 281.745 214.935 277.962C207.923 281.745 204.654 285.671 204.621 285.71L204.394 285.983L201.352 283.268L201.567 283.008C201.684 282.871 204.42 279.661 211.042 276.074C206.702 274.197 202.159 272.829 197.505 271.998C195.879 274.639 193.652 276.857 191.005 278.47C189.312 279.445 187.381 279.93 185.429 279.87C183.962 279.871 182.501 279.672 181.088 279.277L180.717 279.16L180.873 278.802C180.984 278.554 183.642 272.727 188.276 270.839C189.186 270.492 190.139 270.273 191.109 270.188C189.309 269.537 187.489 268.795 185.663 267.935C183.657 270.132 181.173 271.836 178.403 272.916C177.322 273.325 176.173 273.528 175.017 273.515C172.827 273.465 170.671 272.95 168.694 272.005L168.343 271.822L168.564 271.497C168.713 271.275 172.268 266.106 177.064 265.07C177.653 264.952 178.252 264.895 178.852 264.901C179.229 264.901 179.632 264.901 180.054 264.953C178.319 263.925 176.603 262.811 174.946 261.633C172.605 263.468 169.867 264.728 166.952 265.311C166.41 265.416 165.859 265.469 165.308 265.468C161.343 265.468 157.872 262.863 157.729 262.772L157.417 262.538L157.69 262.251C157.872 262.069 162.188 257.694 166.991 257.498H167.218C168.244 257.527 169.26 257.695 170.24 258C168.577 256.6 166.991 255.128 165.431 253.598C162.85 254.99 159.977 255.749 157.047 255.812H156.859C152.355 255.812 148.722 251.951 148.566 251.788L148.299 251.502L148.617 251.267C148.793 251.144 152.933 248.188 157.235 248.188C157.629 248.187 158.022 248.213 158.412 248.266C159.456 248.445 160.466 248.783 161.408 249.269C159.978 247.595 158.626 245.87 157.379 244.112C155.554 244.712 153.645 245.015 151.724 245.01C150.793 245.009 149.863 244.94 148.942 244.802C144.503 244.151 141.566 239.665 141.442 239.476L141.228 239.144L141.585 238.975C143.796 237.953 146.19 237.388 148.624 237.315C149.615 237.305 150.601 237.447 151.549 237.738C152.478 238.072 153.353 238.539 154.148 239.125C153.056 237.269 152.049 235.361 151.152 233.441C150.366 233.551 149.574 233.606 148.78 233.603C146.813 233.604 144.859 233.283 142.996 232.653C138.817 231.246 136.743 226.429 136.659 226.227L136.503 225.862L136.88 225.758C138.406 225.36 139.976 225.156 141.553 225.152C143.338 225.098 145.109 225.48 146.713 226.266C147.517 226.722 148.25 227.292 148.891 227.958C148.181 225.974 147.572 223.955 147.064 221.91C144.319 221.818 141.634 221.08 139.226 219.755C135.437 217.684 134.248 212.677 134.202 212.469L134.111 212.085L134.501 212.046C134.501 212.046 135.054 211.987 135.892 211.987C137.842 211.987 141.423 212.28 143.912 214.214C144.631 214.816 145.262 215.518 145.784 216.298C145.382 214.144 145.089 211.97 144.906 209.787C142.291 209.226 139.843 208.06 137.757 206.382C134.443 203.732 134.15 198.699 134.137 198.484V198.093H134.527C134.761 198.093 140.318 198.556 143.243 201.798C143.834 202.491 144.32 203.268 144.686 204.103C144.687 201.817 144.807 199.533 145.043 197.26C142.577 196.27 140.38 194.708 138.635 192.702C135.886 189.577 136.457 184.668 136.483 184.459L136.529 184.075L136.912 184.166C137.133 184.225 142.424 185.599 144.711 189.225C145.213 190.086 145.577 191.019 145.79 191.993C146.219 189.61 146.759 187.227 147.415 184.889C145.156 183.509 143.26 181.607 141.884 179.342C139.759 175.859 141.143 171.21 141.234 171.015L141.345 170.637L141.702 170.8C141.91 170.891 146.785 173.124 148.364 177.018C148.729 178.018 148.927 179.072 148.949 180.136C149.8 177.747 150.769 175.396 151.841 173.118C149.892 171.406 148.385 169.249 147.448 166.828C145.992 163.097 148.098 158.846 148.208 158.67L148.39 158.318L148.715 158.54C148.891 158.664 153.128 161.587 154.051 165.559V165.604L153.784 170.676C153.832 171.24 153.801 171.807 153.693 172.362C154.835 171.073 156.214 170.016 157.755 169.25C158.826 168.842 159.964 168.643 161.109 168.664C163.008 168.696 164.888 169.055 166.666 169.725L167.03 169.875L166.841 170.214C166.744 170.39 164.417 174.537 160.511 175.422C159.334 175.688 158.13 175.821 156.923 175.819C155.559 175.825 154.2 175.65 152.881 175.299C151.897 177.593 151.029 179.935 150.281 182.317C150.959 181.405 151.785 180.613 152.725 179.974C154.495 178.978 156.507 178.496 158.535 178.58C159.625 178.574 160.713 178.672 161.785 178.873L162.168 178.951L162.038 179.322C161.973 179.518 160.368 184.088 156.598 185.657C154.579 186.505 152.413 186.947 150.223 186.96C149.807 186.96 149.404 186.96 149.02 186.914C148.418 189.355 147.943 191.826 147.597 194.317C148.13 193.253 148.835 192.285 149.683 191.452C152.556 188.848 157.405 188.737 158.347 188.737H158.555H158.945L158.886 189.128C158.854 189.336 158.048 194.213 154.545 196.453C152.311 197.906 149.761 198.8 147.11 199.057C146.942 201.54 146.914 204.032 147.025 206.518C147.373 205.31 147.922 204.17 148.65 203.146C151.341 199.708 156.852 198.888 157.099 198.848L157.482 198.796V199.187C157.482 199.402 157.534 204.441 154.415 207.313C152.423 209.151 150.024 210.49 147.415 211.219C147.687 213.468 148.082 215.7 148.598 217.906C148.741 216.741 149.075 215.608 149.586 214.553C151.685 210.646 157.073 208.817 157.3 208.738L157.671 208.621L157.749 209.005C157.788 209.214 158.737 214.273 156.111 217.71C154.458 219.883 152.321 221.64 149.872 222.841C150.497 224.998 151.239 227.119 152.095 229.196C152.03 227.986 152.164 226.774 152.491 225.608C153.908 221.291 158.99 218.524 159.211 218.407L159.562 218.218L159.699 218.589C159.777 218.791 161.648 223.7 159.595 227.62C158.322 230.091 156.493 232.231 154.252 233.87C155.214 235.739 156.28 237.595 157.43 239.392C157.2 238.296 157.145 237.171 157.268 236.058C157.918 231.5 162.545 227.789 162.74 227.633L163.046 227.392L163.254 227.731C163.371 227.92 166.087 232.523 164.742 236.846C163.917 239.497 162.502 241.926 160.602 243.949C161.83 245.557 163.15 247.133 164.502 248.657C164.131 247.678 163.912 246.648 163.852 245.603C163.702 240.883 167.693 236.358 167.862 236.169L168.128 235.876L168.382 236.175C168.531 236.345 172.08 240.485 171.482 245.036C171.127 247.821 170.155 250.491 168.635 252.849C170.078 254.197 171.586 255.493 173.139 256.756C172.622 255.873 172.237 254.919 171.995 253.924C171.007 249.21 174.224 243.956 174.361 243.734L174.569 243.402L174.868 243.65C175.05 243.793 179.346 247.322 179.554 251.997C179.685 254.851 179.176 257.699 178.065 260.33C179.788 261.47 181.549 262.525 183.31 263.482C182.549 262.62 181.926 261.645 181.464 260.591C179.638 256.033 181.932 250.174 182.036 249.939L182.179 249.575L182.524 249.763C182.732 249.881 187.665 252.661 188.705 257.323C189.352 260.201 189.334 263.189 188.653 266.06C190.475 266.831 192.336 267.505 194.229 268.078C193.326 267.357 192.539 266.5 191.896 265.539C189.257 261.288 190.531 255.005 190.596 254.738L190.674 254.354L191.044 254.484C191.278 254.562 196.725 256.483 198.59 260.995C199.689 263.66 200.206 266.531 200.104 269.413C203.352 270.04 206.548 270.91 209.665 272.017C211.523 272.669 213.33 273.404 215.039 274.179C216.742 273.411 218.549 272.682 220.414 272.017C223.533 270.914 226.728 270.043 229.975 269.413C229.866 266.53 230.382 263.658 231.489 260.995C233.354 256.502 238.801 254.581 239.035 254.484L239.405 254.354L239.483 254.738C239.541 255.005 240.815 261.288 238.183 265.539C237.54 266.5 236.753 267.357 235.85 268.078C237.744 267.508 239.605 266.834 241.426 266.06C240.748 263.189 240.733 260.201 241.381 257.323C242.414 252.661 247.347 249.881 247.561 249.763L247.899 249.575L248.049 249.939C248.146 250.187 250.441 256.033 248.621 260.591C248.155 261.646 247.528 262.621 246.762 263.482C248.536 262.525 250.298 261.47 252.013 260.33C250.905 257.698 250.396 254.851 250.525 251.997C250.733 247.322 255.029 243.793 255.211 243.65L255.517 243.402L255.718 243.734C255.854 243.956 259.072 249.21 258.084 253.924C257.841 254.92 257.456 255.876 256.94 256.763C258.48 255.538 259.994 254.243 261.45 252.856C259.925 250.499 258.95 247.829 258.597 245.043C258.006 240.485 261.548 236.351 261.697 236.182L261.957 235.882L262.217 236.175C262.386 236.364 266.383 240.889 266.234 245.61C266.17 246.656 265.951 247.687 265.584 248.67C266.955 247.159 268.274 245.583 269.516 243.956C267.618 241.932 266.202 239.503 265.376 236.852C264.037 232.562 266.754 227.959 266.871 227.737L267.072 227.399L267.384 227.639C267.579 227.796 272.2 231.481 272.856 236.064C272.974 237.182 272.915 238.312 272.681 239.411C273.844 237.608 274.91 235.752 275.872 233.877C273.629 232.238 271.797 230.098 270.523 227.626C268.495 223.72 270.341 218.798 270.419 218.596L270.562 218.225L270.907 218.414C271.121 218.531 276.21 221.298 277.627 225.615C277.957 226.782 278.091 227.997 278.023 229.209C278.884 227.132 279.626 225.008 280.246 222.848C277.798 221.647 275.664 219.89 274.013 217.717C271.414 214.279 272.33 209.253 272.369 209.012L272.447 208.628L272.817 208.745C273.045 208.823 278.433 210.627 280.532 214.559C281.044 215.617 281.379 216.752 281.526 217.919C282.042 215.711 282.437 213.477 282.709 211.226C280.098 210.501 277.698 209.162 275.709 207.319C272.583 204.448 272.635 199.408 272.642 199.194V198.803L273.025 198.855C273.259 198.894 278.771 199.714 281.474 203.152C282.197 204.184 282.746 205.328 283.099 206.538C283.212 204.047 283.181 201.551 283.008 199.063C280.36 198.794 277.812 197.902 275.573 196.459C272.07 194.219 271.264 189.343 271.232 189.134L271.173 188.744H271.563H271.771C272.713 188.744 277.568 188.874 280.441 191.459C281.29 192.296 281.994 193.269 282.527 194.336C282.183 191.841 281.708 189.366 281.104 186.921C280.714 186.953 280.311 186.966 279.895 186.966C277.705 186.953 275.539 186.511 273.519 185.664C269.756 184.095 268.144 179.524 268.079 179.329L267.949 178.958L268.333 178.88C269.404 178.679 270.493 178.581 271.583 178.587C273.611 178.502 275.623 178.984 277.393 179.98C278.336 180.626 279.167 181.425 279.85 182.343C279.091 179.954 278.21 177.605 277.211 175.305C275.891 175.653 274.533 175.828 273.168 175.826C271.961 175.828 270.758 175.694 269.581 175.429C265.681 174.563 263.348 170.416 263.251 170.22L263.062 169.882L263.426 169.732C265.204 169.063 267.084 168.704 268.983 168.671C270.128 168.65 271.266 168.849 272.336 169.257C273.618 169.862 274.777 170.698 275.755 171.724L276.262 172.304C276.262 171.653 276.262 170.904 276.301 170.682C275.878 169.051 275.782 167.351 276.021 165.682C276.886 161.652 281.221 158.67 281.39 158.52L281.715 158.299L281.897 158.65C281.988 158.826 284.119 163.078 282.664 166.809C281.722 169.228 280.213 171.385 278.264 173.098C279.346 175.387 280.311 177.73 281.156 180.117C281.186 179.053 281.384 178 281.741 176.998C283.32 173.091 288.194 170.871 288.402 170.78L288.76 170.617L288.877 170.995C288.935 171.19 290.32 175.839 288.194 179.322C286.821 181.589 284.924 183.491 282.664 184.87C283.314 187.201 283.866 189.583 284.288 191.966C284.503 190.996 284.867 190.065 285.367 189.206C287.636 185.579 292.926 184.206 293.166 184.147L293.543 184.056L293.589 184.44C293.589 184.648 294.193 189.557 291.444 192.683C289.7 194.691 287.503 196.253 285.036 197.24C285.27 199.513 285.387 201.798 285.393 204.077C285.759 203.247 286.243 202.475 286.83 201.785C289.754 198.529 295.311 198.1 295.545 198.08H295.935V198.471C295.935 198.686 295.63 203.719 292.322 206.369C290.236 208.047 287.788 209.213 285.172 209.774C284.991 211.946 284.701 214.109 284.301 216.252C284.82 215.471 285.451 214.771 286.173 214.175C288.656 212.222 292.263 211.948 294.193 211.948C295.025 211.948 295.558 212.007 295.578 212.007L295.968 212.046L295.883 212.43C295.831 212.639 294.642 217.639 290.846 219.716C288.441 221.041 285.758 221.78 283.015 221.871C282.509 223.912 281.902 225.926 281.195 227.906C281.835 227.246 282.566 226.681 283.366 226.227C284.97 225.441 286.741 225.059 288.526 225.113C290.103 225.117 291.673 225.321 293.199 225.719L293.576 225.823L293.42 226.188C293.335 226.389 291.262 231.208 287.083 232.614C285.219 233.244 283.266 233.565 281.299 233.564C280.507 233.567 279.717 233.513 278.933 233.402C278.036 235.322 277.029 237.224 275.937 239.086C276.731 238.499 277.607 238.031 278.537 237.699C279.482 237.408 280.466 237.266 281.455 237.276C283.889 237.349 286.283 237.914 288.494 238.936L288.851 239.105L288.637 239.437C288.513 239.626 285.575 244.086 281.136 244.763C280.216 244.901 279.286 244.971 278.355 244.971C276.434 244.975 274.526 244.672 272.7 244.073C271.453 245.831 270.101 247.556 268.677 249.229C269.617 248.745 270.625 248.407 271.667 248.227C272.057 248.174 272.45 248.148 272.843 248.149C277.146 248.149 281.292 251.105 281.461 251.228L281.78 251.463L281.513 251.749C281.357 251.912 277.724 255.773 273.227 255.773H273.038C270.108 255.712 267.234 254.953 264.654 253.559C263.114 255.089 261.502 256.567 259.845 257.954C260.824 257.655 261.838 257.488 262.861 257.459H263.088C267.897 257.642 272.187 262.017 272.388 262.212L272.661 262.499L272.349 262.733C272.206 262.844 268.742 265.429 264.778 265.429C264.224 265.43 263.671 265.377 263.127 265.272C260.213 264.691 257.477 263.431 255.14 261.594C253.469 262.779 251.76 263.892 250.031 264.914C250.447 264.914 250.844 264.862 251.221 264.862C251.823 264.856 252.424 264.913 253.014 265.031C257.811 266.067 261.366 271.236 261.515 271.458L261.736 271.783L261.385 271.965C259.408 272.911 257.252 273.426 255.061 273.476C253.905 273.489 252.757 273.285 251.675 272.877C248.907 271.795 246.424 270.091 244.416 267.896C242.641 268.738 240.826 269.49 238.976 270.149C239.944 270.234 240.895 270.453 241.803 270.8C246.431 272.688 249.095 278.515 249.206 278.763L249.362 279.121L248.991 279.238C247.578 279.633 246.117 279.832 244.65 279.83C242.697 279.891 240.767 279.406 239.074 278.431C236.425 276.821 234.197 274.603 232.574 271.959C227.92 272.79 223.377 274.158 219.036 276.035C225.659 279.622 228.389 282.832 228.506 282.969L228.72 283.229L225.685 285.951L225.256 285.71Z" fill="#008B3F"/>
<path d="M114.62 312.157L112.234 319.41H109.16L116.959 296.355H120.54L128.398 319.41H125.22L122.763 312.157H114.62ZM122.165 309.833L119.916 303.198C119.403 301.694 119.058 300.327 118.721 298.992H118.649C118.311 300.36 117.934 301.759 117.492 303.166L115.237 309.833H122.165Z" fill="black"/>
<path d="M131.791 296.347H134.761V316.908H144.594V319.402H131.791V296.347Z" fill="black"/>
<path d="M164.099 318.381C161.83 319.201 159.44 319.63 157.028 319.651C153.544 319.651 150.678 318.759 148.423 316.604C146.473 314.69 145.219 311.61 145.219 308.023C145.251 301.147 149.963 296.114 157.678 296.114C159.643 296.069 161.597 296.43 163.416 297.175L162.695 299.604C161.094 298.905 159.359 298.567 157.613 298.614C152.01 298.614 148.358 302.104 148.358 307.886C148.358 313.667 151.874 317.19 157.236 317.19C158.586 317.254 159.935 317.032 161.194 316.539V309.696H156.488V307.3H164.073L164.099 318.381Z" fill="black"/>
<path d="M180.534 308.6H171.591V316.914H181.561V319.408H168.641V296.347H181.067V298.847H171.611V306.113H180.534V308.6Z" fill="black"/>
<path d="M201.521 318.654C199.596 319.449 197.525 319.824 195.444 319.754C188.945 319.754 184.07 315.646 184.07 308.087C184.07 300.873 188.951 295.976 196.087 295.976C197.964 295.899 199.833 296.25 201.553 297.005L200.838 299.434C199.379 298.776 197.792 298.449 196.191 298.477C190.797 298.477 187.209 301.934 187.209 307.983C187.209 313.627 190.459 317.254 196.055 317.254C197.72 317.278 199.372 316.952 200.903 316.297L201.521 318.654Z" fill="black"/>
<path d="M208.209 296.347V319.402H205.232V296.347H208.209Z" fill="black"/>
<path d="M213.4 296.66C215.282 296.327 217.19 296.168 219.1 296.185C222.278 296.185 224.3 296.764 225.762 298.066C226.356 298.625 226.825 299.304 227.136 300.059C227.448 300.813 227.595 301.626 227.569 302.442C227.58 303.758 227.163 305.042 226.381 306.099C225.598 307.156 224.494 307.93 223.234 308.302V308.406C225.008 309.018 226.067 310.658 226.613 313.054C227.367 316.271 227.913 318.491 228.387 319.383H225.313C224.943 318.732 224.43 316.779 223.78 313.875C223.097 310.698 221.869 309.5 219.172 309.395H216.37V319.383H213.4V296.66ZM216.37 307.162H219.412C222.584 307.162 224.612 305.417 224.612 302.787C224.612 299.811 222.46 298.509 219.321 298.477C218.334 298.449 217.348 298.541 216.383 298.75L216.37 307.162Z" fill="black"/>
<path d="M235.661 312.157L233.269 319.41H230.201L238 296.355H241.627L249.484 319.41H246.306L243.849 312.157H235.661ZM243.206 309.833L240.951 303.198C240.444 301.694 240.099 300.327 239.761 298.992H239.677C239.339 300.36 238.962 301.759 238.514 303.166L236.265 309.833H243.206Z" fill="black"/>
<path d="M252.428 315.785C254.037 316.753 255.875 317.272 257.751 317.289C260.793 317.289 262.567 315.68 262.567 313.382C262.567 311.227 261.339 309.996 258.232 308.824C254.476 307.522 252.155 305.569 252.155 302.314C252.155 298.72 255.125 296.05 259.597 296.05C261.362 295.989 263.113 296.379 264.686 297.183L263.867 299.612C262.522 298.889 261.019 298.513 259.493 298.518C256.354 298.518 255.158 300.399 255.158 301.969C255.158 304.124 256.555 305.185 259.707 306.415C263.607 307.92 265.557 309.801 265.557 313.187C265.557 316.748 262.924 319.828 257.498 319.828C255.454 319.849 253.44 319.342 251.648 318.357L252.428 315.785Z" fill="black"/>
<path d="M292.972 318.653C291.048 319.45 288.976 319.825 286.895 319.754C280.396 319.754 275.521 315.645 275.521 308.086C275.521 300.872 280.409 295.976 287.545 295.976C289.419 295.899 291.286 296.251 293.004 297.005L292.289 299.433C290.83 298.775 289.243 298.448 287.643 298.476C282.248 298.476 278.667 301.934 278.667 307.982C278.667 313.627 281.917 317.254 287.506 317.254C289.171 317.278 290.823 316.951 292.354 316.296L292.972 318.653Z" fill="black"/>
<path d="M295.889 317.632C295.871 317.353 295.911 317.073 296.007 316.81C296.102 316.546 296.251 316.306 296.444 316.104C296.637 315.901 296.87 315.741 297.128 315.633C297.386 315.525 297.663 315.472 297.943 315.477C298.373 315.456 298.801 315.565 299.169 315.79C299.537 316.015 299.83 316.345 300.009 316.738C300.189 317.131 300.246 317.569 300.174 317.995C300.103 318.421 299.905 318.816 299.607 319.129C299.309 319.441 298.925 319.657 298.503 319.749C298.082 319.84 297.642 319.803 297.242 319.642C296.842 319.481 296.499 319.203 296.258 318.845C296.017 318.487 295.888 318.064 295.889 317.632V317.632Z" fill="black"/>
<path d="M303.779 296.347H316.173V298.847H306.749V306.504H315.458V308.971H306.749V319.389H303.779V296.347Z" fill="black"/>
<path d="M316.278 317.633C316.259 317.354 316.298 317.074 316.393 316.811C316.488 316.548 316.636 316.307 316.829 316.105C317.021 315.902 317.254 315.742 317.511 315.634C317.769 315.526 318.046 315.473 318.325 315.478C318.867 315.524 319.371 315.773 319.737 316.176C320.103 316.578 320.304 317.104 320.3 317.648C320.296 318.193 320.087 318.715 319.715 319.112C319.343 319.509 318.835 319.75 318.293 319.788C318.016 319.789 317.743 319.732 317.489 319.623C317.235 319.513 317.007 319.352 316.818 319.15C316.629 318.947 316.483 318.708 316.39 318.448C316.298 318.187 316.259 317.909 316.278 317.633V317.633Z" fill="black"/>
<path d="M123.72 340.09H90.1777L123.72 432.726V340.09Z" fill="white"/>
<path d="M123.719 340.09V432.733L159.419 531.32V340.09H123.719Z" fill="#E41038"/>
<path d="M159.418 340.09V531.327L195.118 633.378V340.09H159.418Z" fill="white"/>
<path d="M195.119 633.378L213.577 680.888L230.813 633.248V340.09H195.119V633.378Z" fill="#E41038"/>
<path d="M230.82 633.241L266.514 534.602V340.09H230.82V633.241Z" fill="white"/>
<path d="M266.514 534.608L302.214 435.969V340.09H266.514V534.608Z" fill="#E41038"/>
<path d="M302.207 435.982L336.913 340.09H302.207V435.982Z" fill="white"/>
</g>
<defs>
<clipPath id="clip0_2411_2900">
<rect width="425.926" height="721.234" fill="white"/>
</clipPath>
</defs>
</svg>
