<svg xmlns="http://www.w3.org/2000/svg" width="154" height="29" viewBox="0 0 154 29" fill="none"><path d="M0.74707 4.54661C1.08201 4.54661 1.41694 4.58907 1.75188 4.54661C2.08681 4.50416 2.16229 4.64096 2.15757 4.95231C2.15757 6.23072 2.15757 7.50914 2.15757 8.78284C2.15757 9.18382 2.26607 9.29232 2.66705 9.2876C4.44551 9.2876 6.22397 9.26402 8.00243 9.2876C8.44586 9.2876 8.53077 9.14136 8.52134 8.74038C8.52134 7.47612 8.52134 6.21657 8.52134 4.96646C8.52134 4.66455 8.58267 4.55133 8.9176 4.55133C9.91769 4.55133 9.91769 4.55132 9.91769 5.55141C9.91769 8.63188 9.91769 11.7123 9.91769 14.7928C9.91769 15.2032 9.80447 15.2976 9.41293 15.2646C8.51662 15.2362 8.51662 15.2646 8.51662 14.3588C8.51662 13.1747 8.51662 12.0001 8.51662 10.8113C8.51662 10.4858 8.42699 10.3726 8.08262 10.3773C6.24284 10.3773 4.40148 10.3773 2.55855 10.3773C2.23305 10.3773 2.15285 10.4811 2.15757 10.7877C2.15757 12.1463 2.15757 13.5002 2.15757 14.8589C2.15757 15.1702 2.07738 15.2881 1.75188 15.2598C1.42638 15.2315 1.08201 15.2598 0.74707 15.2598V4.54661Z" fill="white"></path><path d="M93.7222 28.7938C93.8071 27.6474 93.7222 26.5011 93.7599 25.3548C93.7599 24.5104 93.7599 23.666 93.7599 22.8216C93.7599 22.6187 93.7599 22.4442 94.0194 22.4017C94.7962 22.2499 95.5919 22.2196 96.3781 22.3121C96.8304 22.3506 97.2522 22.5559 97.5617 22.8881C97.8712 23.2202 98.0462 23.6555 98.0527 24.1094C98.0848 24.4231 98.0848 24.7392 98.0527 25.0529C97.8735 26.5719 96.7413 27.3361 95.1421 26.9398C94.6326 26.8172 94.5996 26.9729 94.6185 27.3833C94.6373 27.7937 94.6185 28.3267 94.6185 28.7702L93.7222 28.7938ZM94.6043 24.5481C94.6043 24.9632 94.6043 25.3784 94.6043 25.7935C94.5935 25.8717 94.6114 25.9512 94.6548 26.0171C94.6982 26.0831 94.7641 26.131 94.8402 26.152C96.1139 26.704 97.1611 26.053 97.1989 24.6802C97.1989 24.5387 97.1989 24.3924 97.1989 24.2509C97.2045 24.086 97.1775 23.9215 97.1193 23.7671C97.061 23.6126 96.9728 23.4712 96.8596 23.3511C96.7465 23.2309 96.6107 23.1343 96.46 23.0669C96.3093 22.9995 96.1468 22.9626 95.9818 22.9584C95.7129 22.9301 95.4393 22.9584 95.1657 22.9584C94.7317 22.9584 94.5336 23.114 94.5949 23.5811C94.6208 23.9091 94.6239 24.2385 94.6043 24.567V24.5481Z" fill="white"></path><path d="M67.4935 10.4581C67.4935 11.9111 67.4935 13.364 67.4935 14.817C67.4935 15.2321 67.4275 15.3548 66.9746 15.2887C65.1784 15.0027 63.5174 14.1599 62.2258 12.8793C60.9342 11.5988 60.0773 9.94498 59.7758 8.15132C59.5315 6.68519 59.6741 5.18067 60.1895 3.78656C60.705 2.39245 61.5754 1.15704 62.7148 0.20251C62.8017 0.102259 62.9228 0.0380058 63.0545 0.0223034C63.1863 0.00660104 63.3191 0.0405816 63.4271 0.1176C65.9651 1.44319 67.3567 3.51412 67.4699 6.3823C67.5218 7.73619 67.4699 9.09479 67.4699 10.4534L67.4935 10.4581Z" fill="white"></path><path d="M80.6077 13.3968C80.6077 15.1516 80.6077 16.9065 80.6077 18.6614C80.6077 18.9963 80.5605 19.1331 80.169 19.1331C79.1925 19.1048 79.1925 19.1331 79.1925 18.1896C79.1925 17.2462 79.1925 16.3357 79.1925 15.4111C79.1925 15.0997 79.1594 14.9865 78.8056 15.1139C77.9691 15.4055 77.069 15.4642 76.2016 15.2837C75.57 15.2048 74.979 14.9298 74.5118 14.4973C74.0447 14.0649 73.725 13.4968 73.5976 12.8731C73.3931 12.0653 73.3546 11.2244 73.4844 10.4012C73.791 8.45294 74.9515 7.46701 77.0083 7.36322C78.0541 7.31651 79.1019 7.37499 80.1359 7.53776C80.4992 7.58966 80.6313 7.71703 80.6077 8.10857C80.5747 9.89646 80.6077 11.6419 80.6077 13.3968ZM79.1925 11.2362C79.1925 10.5192 79.1925 9.82098 79.1925 9.08507C79.1925 8.74542 79.0651 8.61333 78.7726 8.61333C78.1248 8.51353 77.467 8.49609 76.8149 8.56144C76.3621 8.58936 75.9313 8.76654 75.5899 9.06527C75.2485 9.36401 75.0157 9.76745 74.9279 10.2125C74.7222 11.0041 74.7418 11.8374 74.9845 12.6184C75.0801 12.9931 75.2849 13.3309 75.5731 13.5889C75.8612 13.8468 76.2196 14.0131 76.6026 14.0666C77.3618 14.1938 78.1411 14.119 78.8622 13.8496C78.914 13.8395 78.9633 13.8192 79.0072 13.79C79.0511 13.7608 79.0888 13.7232 79.1182 13.6794C79.1475 13.6355 79.168 13.5863 79.1783 13.5346C79.1886 13.4829 79.1886 13.4296 79.1783 13.3779C79.1925 12.6703 79.1925 11.9532 79.1925 11.2362Z" fill="white"></path><path d="M152.68 9.67881C152.68 11.278 152.68 12.8725 152.68 14.4717C152.68 14.6462 152.746 14.8444 152.459 14.9434C151.026 15.3626 149.519 15.4624 148.043 15.2359C146.708 14.9953 145.982 14.0896 145.685 12.8253C145.481 11.9676 145.445 11.0784 145.581 10.2072C145.85 8.4523 146.963 7.49467 148.845 7.37673C149.517 7.31003 150.195 7.38558 150.836 7.59845C151.275 7.75412 151.308 7.59845 151.308 7.23049C151.308 6.42854 151.308 5.6313 151.308 4.83406C151.308 4.5746 151.369 4.48025 151.652 4.47082C152.709 4.47082 152.709 4.43779 152.709 5.50393L152.68 9.67881ZM151.265 11.4101C151.265 10.7072 151.265 9.99489 151.265 9.30143C151.276 9.19424 151.246 9.08692 151.183 8.99993C151.119 8.91293 151.026 8.85234 150.921 8.82969C150.195 8.56791 149.414 8.49328 148.652 8.61269C148.226 8.66052 147.829 8.84808 147.522 9.14601C147.214 9.44394 147.015 9.8354 146.954 10.2591C146.787 11.0588 146.832 11.8882 147.086 12.6649C147.19 13.0637 147.417 13.4197 147.734 13.6828C148.052 13.946 148.443 14.1031 148.855 14.132C149.525 14.1966 150.201 14.1471 150.855 13.9858C151.157 13.915 151.275 13.7924 151.265 13.4763C151.27 12.7781 151.284 12.0941 151.284 11.4101H151.265Z" fill="white"></path><path d="M28.5135 12.9289C28.5135 11.3344 28.5135 9.73522 28.5135 8.14074C28.5135 7.85298 28.5654 7.72561 28.8862 7.66901C30.1443 7.42254 31.4319 7.36373 32.7073 7.49446C33.4263 7.54705 34.1024 7.8568 34.6118 8.36703C35.1211 8.87727 35.4297 9.55387 35.4811 10.273C35.6105 11.1124 35.5688 11.9693 35.3584 12.7921C35.1993 13.4943 34.8065 14.1217 34.2443 14.5716C33.6821 15.0215 32.9839 15.2673 32.2638 15.2687C31.5936 15.3375 30.9164 15.2619 30.2778 15.047C29.9099 14.9055 29.8863 15.047 29.891 15.3489C29.891 16.165 29.891 16.9764 29.891 17.7925C29.891 18.0614 29.8155 18.1416 29.5419 18.1463C28.5088 18.1463 28.5088 18.1746 28.5088 17.1368L28.5135 12.9289ZM29.891 11.2495V12.443C29.891 13.9054 29.9146 13.9337 31.3911 14.0847C31.5199 14.0941 31.6492 14.0941 31.7779 14.0847C32.9148 14.0516 33.6224 13.5846 33.9527 12.6176C34.2239 11.8273 34.2616 10.9756 34.0612 10.1645C33.9818 9.76956 33.7809 9.40935 33.4864 9.1344C33.192 8.85945 32.8189 8.68355 32.4195 8.63136C31.6882 8.54001 30.9474 8.55749 30.2212 8.68324C29.9806 8.68324 29.8768 8.81533 29.8816 9.07951C29.9051 9.81542 29.891 10.5325 29.891 11.2495Z" fill="white"></path><path d="M105.044 6.34857L104.011 7.32508C104.105 7.47132 104.233 7.43829 104.332 7.46188C104.931 7.58418 105.48 7.8847 105.906 8.32409C106.332 8.76348 106.615 9.32125 106.719 9.92436C106.943 10.8907 106.933 11.8967 106.691 12.8586C106.571 13.4544 106.273 13.9996 105.836 14.4211C105.398 14.8427 104.842 15.1204 104.242 15.2173C103.464 15.3751 102.662 15.3751 101.884 15.2173C101.281 15.1227 100.721 14.8461 100.28 14.4245C99.8394 14.0028 99.5379 13.4565 99.4164 12.8586C99.1711 11.8799 99.1711 10.8559 99.4164 9.87719C99.527 9.276 99.8239 8.7248 100.265 8.30153C100.706 7.87826 101.269 7.60434 101.874 7.51849C102.108 7.49639 102.333 7.41391 102.525 7.27913C102.718 7.14435 102.872 6.96188 102.973 6.74955C103.043 6.58 103.17 6.4401 103.332 6.35399C103.494 6.26788 103.681 6.24094 103.86 6.27781C104.233 6.31555 104.62 6.27781 105.002 6.27781L105.044 6.34857ZM100.624 11.2735C100.622 11.753 100.692 12.2301 100.832 12.6888C101.152 13.6747 101.893 14.1795 103.035 14.1889C104.176 14.1983 104.945 13.6889 105.252 12.7123C105.525 11.8225 105.525 10.8709 105.252 9.98097C105.184 9.71705 105.062 9.47028 104.893 9.25657C104.724 9.04287 104.512 8.86699 104.271 8.7403C103.934 8.53342 103.55 8.41456 103.155 8.39463C102.76 8.37471 102.367 8.45436 102.011 8.62628C101.655 8.79819 101.348 9.05684 101.118 9.37847C100.888 9.70009 100.742 10.0744 100.695 10.4669C100.662 10.731 100.652 11.0046 100.624 11.2735Z" fill="white"></path><path d="M125.395 8.82582C125.395 8.78808 125.366 8.77392 125.366 8.75977C125.272 7.69364 125.272 7.68893 126.31 7.48136C127.379 7.25326 128.487 7.26615 129.551 7.5191C130.843 7.83988 131.438 8.59938 131.438 9.91553C131.438 11.5808 131.438 13.2413 131.438 14.9018C131.438 15.0528 131.537 15.3075 131.268 15.3217C130.999 15.3358 130.673 15.4868 130.537 15.1519C130.296 14.5575 129.994 14.6235 129.499 14.883C128.514 15.3768 127.38 15.4845 126.319 15.1849C125.851 15.0895 125.43 14.8339 125.13 14.462C124.829 14.09 124.668 13.6251 124.673 13.147C124.597 12.6561 124.692 12.1541 124.942 11.7248C125.192 11.2955 125.581 10.9649 126.046 10.7883C127.159 10.3448 128.315 10.4769 129.466 10.5618C130.037 10.609 130.032 10.6373 130.027 10.0571C130.048 9.88077 130.033 9.70209 129.983 9.53175C129.933 9.36141 129.849 9.20294 129.736 9.06588C129.623 8.92882 129.484 8.81601 129.326 8.73422C129.169 8.65243 128.996 8.60335 128.819 8.58995C127.837 8.43284 126.833 8.48265 125.871 8.73618L125.395 8.82582ZM130.051 12.5997V11.977C130.051 11.8591 130.051 11.7553 129.886 11.7365C128.909 11.5454 127.904 11.5454 126.928 11.7365C126.644 11.812 126.402 11.9955 126.252 12.2476C126.102 12.4998 126.057 12.8006 126.126 13.0856C126.133 13.3525 126.24 13.6071 126.425 13.7998C126.61 13.9925 126.859 14.1095 127.126 14.1282C127.811 14.2281 128.51 14.1468 129.154 13.8923C130.022 13.581 130.051 13.5196 130.051 12.595V12.5997Z" fill="white"></path><path d="M52.0158 12.2967C52.0158 13.1411 52.0158 13.9855 52.0158 14.83C52.0158 14.9809 52.1337 15.2404 51.8884 15.264C51.6431 15.2875 51.2846 15.4385 51.1525 15.1177C50.9025 14.5092 50.5911 14.6177 50.1147 14.8677C49.1838 15.3205 48.1232 15.4307 47.1191 15.179C46.6313 15.105 46.1867 14.8569 45.8676 14.4806C45.5485 14.1042 45.3764 13.6251 45.3831 13.1317C45.3123 11.9476 45.8077 11.1315 46.8361 10.773C47.6951 10.5097 48.5996 10.4278 49.492 10.5324C49.5564 10.5367 49.621 10.5367 49.6854 10.5324C50.0014 10.4994 50.393 10.7777 50.6288 10.4852C50.8647 10.1927 50.5722 9.20681 50.1571 8.92848C49.7948 8.6885 49.3699 8.56052 48.9353 8.56053C48.0876 8.50644 47.2367 8.59089 46.4162 8.81055C46.1143 8.89546 45.9869 8.85301 46.0058 8.50392C46.0483 7.65479 45.8407 7.81046 46.7512 7.60289C47.8766 7.33159 49.0505 7.33159 50.176 7.60289C50.726 7.68495 51.2232 7.97591 51.5641 8.41525C51.905 8.85458 52.0634 9.40844 52.0063 9.96159C52.0158 10.7305 52.0158 11.5136 52.0158 12.2967ZM48.9117 11.6363C48.4493 11.5937 47.983 11.6418 47.539 11.7778C47.2613 11.8691 47.029 12.0631 46.8895 12.32C46.7501 12.5769 46.7141 12.8774 46.7889 13.16C46.8075 13.4189 46.9215 13.6616 47.1089 13.8411C47.2963 14.0207 47.5437 14.1243 47.8031 14.1318C48.4896 14.2178 49.1867 14.1252 49.8269 13.8629C50.6336 13.5232 50.6336 13.5232 50.6336 12.6458C50.6336 12.4665 50.6336 12.292 50.6336 12.1174C50.6336 11.8627 50.5817 11.7401 50.2986 11.7259C49.8269 11.7023 49.3504 11.6127 48.9117 11.6363Z" fill="white"></path><path d="M11.7335 11.3108C11.7017 10.8483 11.7415 10.3837 11.8515 9.93336C12.2147 8.40964 13.2242 7.57466 14.9602 7.43314C15.5348 7.37948 16.1142 7.41609 16.6774 7.54164C17.3111 7.66389 17.8897 7.98422 18.3297 8.45644C18.7697 8.92867 19.0485 9.52841 19.1257 10.1692C19.2648 10.9572 19.2648 11.7635 19.1257 12.5515C18.8332 14.1601 17.7529 15.1225 16.0452 15.2546C15.5999 15.3018 15.1508 15.3018 14.7055 15.2546C12.8751 14.9951 11.8751 13.9148 11.743 12.0515C11.6958 11.7826 11.7335 11.5609 11.7335 11.3108ZM17.8237 11.3674C17.8237 11.0985 17.8237 10.858 17.7812 10.6174C17.6491 9.39086 16.9085 8.63607 15.7763 8.5606C14.3611 8.46625 13.5026 9.00875 13.2148 10.2447C13.0203 11.0394 13.0414 11.8716 13.2761 12.6553C13.3456 12.9267 13.4726 13.1799 13.6483 13.398C13.8241 13.6161 14.0447 13.794 14.2951 13.9195C14.6276 14.1095 15.0018 14.2146 15.3846 14.2255C15.7674 14.2364 16.1469 14.1528 16.4897 13.9821C16.8325 13.8114 17.128 13.5589 17.35 13.2468C17.5719 12.9347 17.7136 12.5728 17.7624 12.193C17.7901 11.9219 17.8027 11.6494 17.8001 11.3769L17.8237 11.3674Z" fill="white"></path><path d="M108.441 11.3109C108.441 10.1127 108.441 8.91916 108.441 7.72094C108.441 7.56527 108.361 7.30581 108.653 7.35299C108.945 7.40016 109.309 7.11712 109.469 7.58414C109.549 7.82001 109.469 8.18324 109.724 8.24929C109.88 8.29174 110.115 8.02286 110.318 7.9002C110.789 7.62333 111.31 7.4428 111.851 7.3691C112.392 7.2954 112.942 7.33001 113.469 7.47092C113.995 7.57698 114.467 7.86221 114.805 8.27782C115.143 8.69343 115.326 9.21362 115.323 9.74942C115.38 11.5184 115.352 13.2875 115.356 15.0612C115.356 15.1839 115.38 15.3395 115.191 15.3443C114.838 15.3443 114.484 15.3443 114.135 15.3443C113.786 15.3443 113.955 15.0801 113.955 14.9291C113.955 13.6696 113.955 12.41 113.955 11.1552V10.5325C113.955 8.87199 112.979 8.17381 111.37 8.64555C111.209 8.69662 111.051 8.75969 110.898 8.83425C110.224 9.15031 109.799 9.54185 109.856 10.424C109.955 11.9006 109.856 13.3912 109.894 14.8772C109.894 15.2263 109.837 15.3773 109.422 15.349C108.455 15.3207 108.45 15.349 108.45 14.3583L108.441 11.3109Z" fill="white"></path><path d="M89.2876 11.3395C89.2876 12.5378 89.2876 13.7344 89.2876 14.9295C89.2876 15.104 89.3678 15.4012 89.047 15.3305C88.7262 15.2597 88.3583 15.5663 88.2356 15.0238C88.0799 14.354 88.0564 14.3587 87.4525 14.6936C86.66 15.1582 85.7465 15.3751 84.8297 15.3163C83.3059 15.1937 82.4427 14.3492 82.3955 12.8302C82.3436 11.0942 82.3955 9.35352 82.3672 7.6128C82.3672 7.37693 82.4568 7.31089 82.6785 7.32504C82.9171 7.34628 83.157 7.34628 83.3956 7.32504C83.7352 7.2873 83.7918 7.43826 83.7918 7.73545C83.7918 8.995 83.7918 10.2545 83.7918 11.5094C83.7918 11.75 83.7918 11.9811 83.7918 12.2264C83.7352 14.0379 84.9476 14.3115 86.2213 14.0709C86.3943 14.0339 86.5634 13.9802 86.7261 13.9105C87.5044 13.5945 87.9715 13.151 87.9007 12.1698C87.7922 10.6933 87.9007 9.20256 87.8677 7.7213C87.8677 7.40995 87.9431 7.3156 88.2639 7.32032C89.3018 7.32032 89.3017 7.32032 89.3017 8.32513L89.2876 11.3395Z" fill="white"></path><path d="M143.911 11.3112C143.911 12.5251 143.911 13.7375 143.911 14.9483C143.911 15.1134 143.977 15.3587 143.689 15.3115C143.401 15.2643 143.019 15.5568 142.878 15.0851C142.656 14.3916 142.656 14.3963 142.005 14.736C141.04 15.2953 139.897 15.4641 138.811 15.2077C137.693 14.9247 137.052 14.0991 137.019 12.7877C136.971 11.0659 137.019 9.34401 136.99 7.59857C136.99 7.37213 137.061 7.31081 137.292 7.29666C138.424 7.24005 138.424 7.23532 138.424 8.35335C138.424 9.64592 138.424 10.9385 138.424 12.2311C138.424 13.7123 139.259 14.3775 140.731 14.0803C140.979 14.0196 141.221 13.9359 141.453 13.8303C141.797 13.7371 142.096 13.5212 142.292 13.2231C142.489 12.9251 142.569 12.5655 142.519 12.2122C142.425 10.7356 142.519 9.24494 142.486 7.75896C142.486 7.42874 142.533 7.28722 142.92 7.28722C143.92 7.28722 143.92 7.28722 143.92 8.28259L143.911 11.3112Z" fill="white"></path><path d="M117.281 13.7407C118.399 14.0932 119.574 14.2308 120.744 14.1464C120.983 14.1269 121.217 14.0679 121.437 13.9719C121.649 13.8904 121.826 13.7386 121.94 13.542C122.053 13.3453 122.095 13.1157 122.06 12.8916C122.041 12.6657 121.941 12.4542 121.779 12.2957C121.617 12.1372 121.404 12.0423 121.178 12.0283C120.767 11.9811 120.347 12 119.932 11.9811C119.659 11.9811 119.385 11.9811 119.116 11.9434C117.451 11.7736 116.611 10.5282 117.083 8.91953C117.356 7.97605 118.116 7.61753 118.97 7.44771C120.271 7.24285 121.599 7.30384 122.876 7.62697C123.234 7.70245 123.149 7.9619 123.154 8.18362C123.154 8.9101 123.154 8.90539 122.461 8.74028C121.453 8.46335 120.398 8.40384 119.366 8.56573C118.762 8.67895 118.423 8.98086 118.328 9.41958C118.206 10.1508 118.611 10.6272 119.409 10.6744C120.144 10.6579 120.88 10.6863 121.612 10.7593C122.129 10.8104 122.607 11.0552 122.951 11.4446C123.295 11.8341 123.479 12.3392 123.466 12.8586C123.539 13.366 123.415 13.8824 123.118 14.3005C122.821 14.7186 122.374 15.0063 121.871 15.104C120.43 15.4393 118.927 15.4052 117.503 15.005C117.467 15.0036 117.433 14.9946 117.401 14.9785C117.369 14.9625 117.342 14.9398 117.32 14.912C117.298 14.8842 117.282 14.852 117.274 14.8175C117.266 14.7831 117.265 14.7473 117.272 14.7125C117.286 14.4106 117.281 14.1087 117.281 13.7407Z" fill="white"></path><path d="M23.551 15.2836C22.7434 15.282 21.9384 15.1934 21.1498 15.0194C20.8243 14.9581 20.7441 14.8213 20.7488 14.51C20.7488 13.7505 20.7488 13.7505 21.4659 13.9203C22.3697 14.1407 23.3039 14.2093 24.2303 14.1231C25.0275 14.0429 25.4568 13.6514 25.4568 13.0428C25.4568 12.4343 25.0888 12.0616 24.3812 12.0145C23.6933 12.0262 23.0052 12.0026 22.3197 11.9437C21.8187 11.9069 21.3499 11.6824 21.0071 11.3151C20.6643 10.9479 20.4727 10.4648 20.4705 9.96239C20.3826 9.46624 20.486 8.95521 20.7601 8.53236C21.0341 8.10951 21.4583 7.8063 21.947 7.68388C23.4142 7.21215 24.886 7.42443 26.3531 7.74993C26.6644 7.82069 26.5465 8.07543 26.5512 8.26412C26.5512 8.98117 26.5512 8.97645 25.8719 8.81606C24.8501 8.53531 23.7789 8.48376 22.7348 8.6651C22.1169 8.80191 21.7914 9.13684 21.7914 9.65104C21.7716 9.78381 21.7816 9.91931 21.8206 10.0477C21.8597 10.1762 21.9268 10.2943 22.017 10.3936C22.1073 10.493 22.2186 10.571 22.3427 10.622C22.4669 10.6731 22.6008 10.6959 22.7348 10.6889C23.4047 10.7408 24.0793 10.6889 24.7492 10.7691C26.7493 10.9389 27.056 12.4815 26.7682 13.7174C26.6902 14.0136 26.5386 14.2853 26.3275 14.5071C26.1164 14.729 25.8525 14.8939 25.5606 14.9864C24.9193 15.2265 24.2343 15.3278 23.551 15.2836Z" fill="white"></path><path d="M69.1304 7.53747C69.0951 6.68113 69.1235 5.82335 69.2153 4.97121C69.3078 4.45109 69.5128 3.95744 69.8159 3.52477C70.119 3.0921 70.513 2.73085 70.9702 2.46628C71.0059 2.43537 71.0474 2.41191 71.0923 2.39729C71.1372 2.38266 71.1845 2.37717 71.2315 2.38113C71.2786 2.38508 71.3244 2.39841 71.3662 2.42033C71.408 2.44225 71.445 2.4723 71.475 2.50874C72.0619 3.06885 72.4875 3.77634 72.7074 4.55723C72.9273 5.33812 72.9334 6.16374 72.7251 6.9478C72.5735 7.71412 72.2082 8.42194 71.6715 8.98954C71.1348 9.55715 70.4485 9.9614 69.6918 10.1556C69.1351 10.316 69.1304 10.3066 69.1304 9.74993V7.53747Z" fill="white"></path><path d="M40.9153 9.99416V6.55046C40.9153 6.37592 40.8398 6.11646 41.1653 6.16835C41.4106 6.20137 41.755 5.97965 41.8541 6.44195C41.9201 6.76274 41.8776 7.22032 42.1418 7.38543C42.406 7.55054 42.8258 7.43261 43.1749 7.44205C43.3319 7.45568 43.4897 7.45568 43.6467 7.44205C44.1184 7.35713 44.2033 7.5647 44.2175 8.00813C44.2175 8.52233 44.0618 8.6214 43.5995 8.59309C43.1372 8.56479 42.6183 8.39968 42.3588 8.67329C42.0994 8.9469 42.2928 9.49411 42.2881 9.9234C42.2881 10.9549 42.2881 11.9912 42.2881 13.0322C42.2881 13.8954 42.5852 14.1785 43.4438 14.1785H43.491C44.1703 14.1785 44.4062 14.5134 44.2033 15.1691C44.1656 15.2918 44.0995 15.3107 43.9957 15.3107C43.4372 15.3398 42.8771 15.324 42.3211 15.2635C41.9186 15.2041 41.5528 14.9966 41.2954 14.6816C41.038 14.3665 40.9075 13.9667 40.9294 13.5605C40.9011 12.3812 40.9294 11.2018 40.9294 10.0177L40.9153 9.99416Z" fill="white"></path><path d="M133.523 9.84914C133.523 8.20277 133.523 6.54697 133.523 4.91475C133.523 4.55622 133.589 4.41942 133.995 4.44301C134.938 4.46659 134.962 4.44301 134.962 5.38649C134.962 8.52828 134.962 11.6748 134.962 14.8213C134.962 15.227 134.886 15.3779 134.443 15.3591C133.537 15.326 133.537 15.3591 133.537 14.458L133.523 9.84914Z" fill="white"></path><path d="M54.1152 9.96181C54.1152 8.31544 54.1152 6.65963 54.1152 5.0274C54.1152 4.68775 54.1766 4.55566 54.554 4.55566C55.5305 4.55566 55.5305 4.55566 55.5305 5.53688C55.5305 8.62207 55.5305 11.7025 55.5305 14.783C55.5305 15.1745 55.4408 15.3019 55.0351 15.2878C54.1152 15.2595 54.1152 15.2878 54.1152 14.3443V9.96181Z" fill="white"></path><path d="M86.3633 22.836C86.8537 22.4224 87.4883 22.2205 88.1276 22.2746C88.4181 22.2636 88.7023 22.3612 88.9248 22.5482C89.2362 22.9068 89.472 22.7983 89.7928 22.5765C90.1428 22.346 90.5588 22.2366 90.9769 22.2652C91.3494 22.2405 91.7165 22.364 91.9983 22.6087C92.2802 22.8535 92.4539 23.1997 92.4817 23.5719C92.5667 24.6532 92.5856 25.7386 92.5383 26.8222C92.5383 27.2232 92.2223 27.0203 92.0383 27.0581C91.8543 27.0958 91.6798 27.0581 91.6845 26.7703C91.6845 25.907 91.6845 25.0437 91.6845 24.1805C91.6845 23.7087 91.6845 23.237 91.1231 23.0247C90.8501 22.9616 90.5653 22.9721 90.2976 23.0549C90.0299 23.1378 89.789 23.2901 89.5994 23.4964C89.5533 23.5605 89.5207 23.6332 89.5037 23.7103C89.4866 23.7874 89.4855 23.8671 89.5003 23.9446C89.5003 24.8551 89.5003 25.7655 89.5003 26.676C89.5003 26.9968 89.4013 27.077 89.0947 27.0722C88.788 27.0675 88.6229 27.0439 88.6229 26.6713C88.6512 25.7938 88.6229 24.9117 88.6229 24.0342C88.6229 23.3927 88.4248 23.0907 87.9813 22.9917C87.7124 22.9533 87.4381 22.9828 87.1835 23.0775C86.9289 23.1723 86.702 23.3293 86.5237 23.5342C86.4645 23.6657 86.4465 23.812 86.4718 23.954C86.4718 24.8645 86.4482 25.7749 86.4718 26.6854C86.4718 27.0817 86.2784 27.0534 86 27.0722C85.7217 27.0911 85.5943 26.9873 85.5991 26.6713C85.5991 25.3315 85.5991 23.9918 85.5991 22.6473C85.5991 22.5058 85.4811 22.2746 85.7925 22.2652C86.0236 22.2652 86.2076 22.2652 86.2642 22.553C86.302 22.6332 86.3303 22.6945 86.3633 22.836Z" fill="white"></path><path d="M96.1752 8.33381C96.7352 7.81244 97.4384 7.47069 98.1943 7.35259C98.5622 7.29126 98.7887 7.35259 98.7132 7.78187C98.699 7.87727 98.699 7.97424 98.7132 8.06964C98.7651 8.3857 98.6519 8.54138 98.3169 8.54138C97.9645 8.55442 97.6196 8.6463 97.3074 8.81027C97.0089 8.91429 96.7538 9.11529 96.5828 9.38119C96.4118 9.64709 96.3347 9.96259 96.3639 10.2774C96.4441 11.82 96.3639 13.3673 96.3969 14.9146C96.3969 15.2448 96.3168 15.3533 95.9724 15.3486C94.9676 15.3486 94.9676 15.3486 94.9676 14.3579C94.9676 12.1565 94.9676 9.95503 94.9676 7.75357C94.9676 7.60261 94.8355 7.28183 95.1704 7.34315C95.5054 7.40448 95.8733 7.09313 95.9913 7.6262C96.0431 7.83376 96.0998 8.04605 96.1752 8.33381Z" fill="white"></path><path d="M128.357 21.5053C128.357 21.7931 128.249 22.1563 128.386 22.345C128.522 22.5337 128.857 22.2601 129.15 22.279C129.442 22.2978 129.622 22.279 129.82 22.279C130.315 22.261 130.797 22.4384 131.162 22.7729C131.528 23.1074 131.747 23.5721 131.773 24.0669C131.817 24.4145 131.817 24.7665 131.773 25.1141C131.617 26.3359 130.914 26.9728 129.669 27.0577C129.077 27.0742 128.485 27.0363 127.9 26.9445C127.588 26.9115 127.494 26.7699 127.499 26.4727C127.499 24.6377 127.499 22.8073 127.499 20.9722C127.499 20.6326 127.593 20.543 127.928 20.543C128.263 20.543 128.4 20.6043 128.357 20.9581C128.343 21.1497 128.343 21.342 128.357 21.5336V21.5053ZM128.357 24.765V25.1943C128.357 26.3737 128.423 26.435 129.617 26.3265C129.908 26.3313 130.193 26.2339 130.42 26.0513C130.647 25.8686 130.804 25.6122 130.862 25.3264C131.032 24.6047 131.126 23.864 130.494 23.2838C130.359 23.1692 130.197 23.0913 130.023 23.0573C129.583 22.966 129.128 22.9838 128.697 23.1092C128.442 23.1753 128.324 23.2932 128.343 23.581C128.367 23.9678 128.348 24.3688 128.348 24.765H128.357Z" fill="white"></path><path d="M109.78 22.4488C109.78 21.8874 109.78 21.3591 109.78 20.8354C109.78 20.458 110.006 20.5335 110.219 20.5335C110.431 20.5335 110.653 20.4722 110.653 20.8401C110.653 22.7271 110.653 24.6141 110.653 26.501C110.653 26.718 110.577 26.8218 110.379 26.8596C109.558 27.0767 108.7 27.1232 107.86 26.9964C107.697 26.9646 107.539 26.9139 107.388 26.8454C106.539 26.435 106.129 25.2462 106.379 23.9395C106.429 23.4895 106.642 23.0735 106.979 22.7708C107.315 22.468 107.752 22.2997 108.204 22.2978C108.46 22.2719 108.718 22.2719 108.973 22.2978C109.233 22.312 109.478 22.3874 109.78 22.4488ZM109.78 24.6707V24.0999C109.78 23.1045 109.695 23.0196 108.686 23.0007C108.558 22.9992 108.43 23.0071 108.303 23.0243C108.035 23.0304 107.779 23.133 107.58 23.3132C107.382 23.4935 107.255 23.7393 107.223 24.0055C107.03 25.4443 107.35 26.6095 109.303 26.2982C109.667 26.2416 109.827 26.1095 109.775 25.7227C109.758 25.3722 109.759 25.021 109.78 24.6707Z" fill="white"></path><path d="M124.093 25.4636V25.9873C124.093 26.8789 124.093 26.8977 123.22 27.0345C122.476 27.1614 121.714 27.1292 120.984 26.9402C119.706 26.5958 119.026 25.7561 118.847 24.3079C118.772 23.7525 118.799 23.1882 118.927 22.6426C119.016 22.1841 119.231 21.7595 119.547 21.4162C119.864 21.0729 120.27 20.8246 120.72 20.699C121.726 20.4193 122.788 20.4079 123.8 20.666C124.211 20.7604 124.126 21.0717 124.074 21.3029C124.022 21.534 123.791 21.3783 123.654 21.3453C122.999 21.18 122.32 21.1369 121.649 21.218C121.132 21.2536 120.646 21.4788 120.285 21.8506C119.924 22.2223 119.712 22.7143 119.691 23.2323C119.658 23.5664 119.658 23.903 119.691 24.2371C119.73 24.6169 119.855 24.9829 120.056 25.3071C120.258 25.6313 120.531 25.9052 120.855 26.1077C121.178 26.3103 121.544 26.4361 121.924 26.4758C122.303 26.5154 122.687 26.4677 123.045 26.3364C123.239 26.2703 123.229 26.1571 123.229 26.0156C123.229 25.4872 123.262 24.9589 123.229 24.4352C123.201 24.0437 123.428 24.0909 123.673 24.0861C123.918 24.0814 124.145 24.0861 124.102 24.4541C124.06 24.8221 124.093 25.124 124.093 25.4636Z" fill="white"></path><path d="M91.4159 11.3489C91.4159 10.1507 91.4159 8.9525 91.4159 7.75428C91.4159 7.43821 91.4677 7.31084 91.8263 7.31556C92.85 7.31556 92.85 7.31555 92.85 8.33923C92.85 10.514 92.85 12.684 92.85 14.854C92.85 15.2125 92.7886 15.3587 92.3782 15.3493C91.4111 15.3257 91.4111 15.3493 91.4111 14.3634L91.4159 11.3489Z" fill="white"></path><path d="M149.765 25.2465C149.765 25.7418 149.765 26.2371 149.765 26.7324C149.765 26.8457 149.831 27.0155 149.647 27.0485C149.463 27.0815 149.279 27.1145 149.175 26.8975C149.052 26.5956 148.887 26.6334 148.633 26.7655C148.044 27.0701 147.363 27.1457 146.722 26.9777C146.427 26.9265 146.16 26.7695 145.971 26.536C145.783 26.3025 145.686 26.0085 145.698 25.7088C145.651 25.4056 145.715 25.0955 145.878 24.8355C146.04 24.5755 146.292 24.383 146.585 24.2935C147.139 24.1301 147.72 24.0835 148.293 24.1567C148.486 24.1567 148.788 24.3549 148.873 24.0765C148.932 23.9162 148.936 23.7408 148.885 23.5778C148.834 23.4148 148.73 23.2734 148.59 23.1755C148.354 23.0355 148.086 22.9606 147.812 22.9585C147.348 22.9419 146.883 22.9847 146.43 23.0859C146.316 23.1095 146.118 23.2651 146.104 23.0057C146.104 22.8264 145.948 22.5339 146.236 22.4679C147.241 22.2037 148.26 22.0858 149.208 22.6519C149.389 22.7721 149.535 22.9389 149.63 23.1348C149.724 23.3307 149.764 23.5484 149.746 23.7652C149.769 24.2558 149.765 24.7511 149.765 25.2465ZM147.996 24.836C147.708 24.8381 147.421 24.8618 147.137 24.9068C147.049 24.9184 146.964 24.9474 146.887 24.9923C146.81 25.0371 146.743 25.0969 146.689 25.168C146.635 25.2392 146.597 25.3203 146.575 25.4067C146.553 25.4931 146.548 25.5829 146.562 25.671C146.554 25.8414 146.611 26.0083 146.723 26.1374C146.834 26.2664 146.991 26.3477 147.161 26.3645C147.589 26.4285 148.027 26.3713 148.425 26.1994C148.897 26.0107 149.034 25.7559 148.897 25.1238C148.817 24.7228 148.458 24.9493 148.232 24.8738C148.155 24.8497 148.076 24.837 147.996 24.836Z" fill="white"></path><path d="M114.158 24.8927C113.686 24.8927 113.215 24.8927 112.743 24.8927C112.502 24.8927 112.446 24.9871 112.479 25.2135C112.513 25.4857 112.636 25.7393 112.827 25.9359C113.019 26.1324 113.269 26.2614 113.54 26.3032C114.126 26.3984 114.723 26.3872 115.305 26.2702C115.422 26.2702 115.616 26.1004 115.621 26.3645C115.621 26.5438 115.757 26.775 115.484 26.9118C114.644 27.3269 112.771 27.0344 112.182 26.3787C111.592 25.723 111.417 24.02 111.969 23.1284C112.469 22.3217 113.819 22.0057 114.866 22.4444C115.256 22.6523 115.567 22.9833 115.749 23.386C115.932 23.7887 115.976 24.2405 115.875 24.671C115.828 24.8927 115.71 24.9021 115.536 24.8974L114.158 24.8927ZM112.512 24.1615C112.556 24.175 112.602 24.1845 112.649 24.1898C113.337 24.1898 114.021 24.1898 114.705 24.1898C115.106 24.1898 115.111 24.0294 115.031 23.7181C114.861 23.1095 114.38 22.8406 113.616 22.9161C112.927 23.0199 112.583 23.4067 112.512 24.1615Z" fill="white"></path><path d="M84.4052 25.1988C84.4052 25.7082 84.4052 26.2177 84.4052 26.7319C84.4052 26.8404 84.4807 27.0102 84.2967 27.048C84.1127 27.0857 83.9287 27.1093 83.8249 26.897C83.6929 26.5715 83.5136 26.6564 83.2683 26.7744C82.6918 27.0636 82.0309 27.1373 81.4049 26.9819C81.1091 26.9366 80.8395 26.7863 80.6455 26.5584C80.4514 26.3306 80.3459 26.0405 80.3482 25.7412C80.297 25.4291 80.3612 25.1091 80.5288 24.8409C80.6963 24.5726 80.9558 24.3745 81.2587 24.2836C81.7979 24.1297 82.3621 24.0832 82.9192 24.1468C83.1173 24.1468 83.4381 24.3779 83.523 24.0383C83.5835 23.8693 83.581 23.6843 83.5161 23.517C83.4511 23.3498 83.3279 23.2116 83.1692 23.1278C82.9377 23.0165 82.6853 22.9554 82.4286 22.9486C81.9653 22.9365 81.5023 22.9841 81.0511 23.0901C80.9473 23.1137 80.7633 23.2363 80.7492 23.0335C80.735 22.8306 80.5794 22.5617 80.8907 22.4627C81.8213 22.1376 82.8402 22.1747 83.7447 22.5664C83.9413 22.6613 84.1062 22.8112 84.2192 22.998C84.3323 23.1847 84.3887 23.4002 84.3816 23.6184C84.3816 24.1468 84.3816 24.6704 84.3816 25.1988H84.4052ZM82.6503 24.8308C82.3788 24.8305 82.1077 24.8495 81.8389 24.8874C81.7469 24.8943 81.6573 24.9199 81.5756 24.9626C81.4938 25.0053 81.4216 25.0642 81.3633 25.1357C81.3051 25.2072 81.262 25.2898 81.2367 25.3785C81.2114 25.4672 81.2044 25.5601 81.2162 25.6516C81.2111 25.7396 81.2234 25.8278 81.2525 25.911C81.2815 25.9942 81.3267 26.0709 81.3854 26.1366C81.4441 26.2024 81.5153 26.2559 81.5947 26.2941C81.6741 26.3323 81.7603 26.3544 81.8484 26.3592C82.2611 26.4141 82.681 26.3588 83.0654 26.1988C83.5372 26.0149 83.6693 25.7271 83.5372 25.1233C83.457 24.7081 83.0985 24.944 82.872 24.8638C82.7997 24.844 82.7253 24.833 82.6503 24.8308Z" fill="white"></path><path d="M139.576 25.2223C139.576 25.694 139.576 26.2082 139.576 26.7035C139.576 26.8262 139.665 27.0196 139.443 27.0526C139.222 27.0857 139.08 27.0951 138.972 26.8828C138.863 26.6705 138.703 26.6328 138.458 26.7554C137.871 27.0654 137.189 27.1445 136.547 26.9772C136.26 26.9323 135.998 26.7865 135.809 26.566C135.619 26.3456 135.515 26.0648 135.514 25.7742C135.452 25.4645 135.506 25.1428 135.665 24.8699C135.824 24.597 136.077 24.3917 136.377 24.293C136.946 24.1227 137.544 24.0761 138.132 24.1561C138.316 24.1561 138.604 24.3401 138.675 24.0807C138.73 23.9362 138.74 23.7786 138.705 23.6281C138.67 23.4776 138.59 23.3411 138.476 23.2363C138.234 23.0504 137.937 22.9507 137.632 22.9532C137.168 22.9327 136.703 22.9739 136.25 23.0759C136.132 23.0995 135.938 23.2646 135.91 23.0193C135.882 22.774 135.745 22.5475 136.066 22.4532C136.99 22.1397 137.997 22.1766 138.896 22.557C139.107 22.6591 139.283 22.8207 139.403 23.022C139.523 23.2232 139.581 23.4551 139.571 23.6891C139.571 24.1986 139.571 24.7081 139.571 25.2223H139.576ZM137.802 24.8307C137.516 24.8327 137.23 24.8564 136.948 24.9015C136.771 24.9272 136.611 25.0221 136.504 25.1654C136.397 25.3087 136.352 25.4887 136.377 25.6657C136.368 25.8364 136.425 26.0039 136.537 26.1333C136.649 26.2626 136.806 26.3436 136.976 26.3592C137.388 26.4223 137.809 26.3717 138.193 26.2129C138.722 26.0195 138.844 25.7412 138.712 25.1138C138.627 24.7175 138.269 24.944 138.042 24.8685C137.967 24.847 137.89 24.8344 137.811 24.8307H137.802Z" fill="white"></path><path d="M77.5839 27.0869C77.119 27.1028 76.6544 27.0471 76.2064 26.9218C75.6835 26.7856 75.2146 26.4932 74.8623 26.0835C74.51 25.6739 74.291 25.1665 74.2345 24.6292C74.0895 23.8894 74.1251 23.1256 74.3383 22.4026C74.4767 21.9394 74.7432 21.5249 75.1072 21.2069C75.4711 20.8888 75.9176 20.6803 76.3951 20.6052C77.3081 20.4202 78.2509 20.4412 79.1548 20.6666C79.5416 20.7562 79.4378 21.0628 79.4001 21.2798C79.3529 21.5817 79.1312 21.3742 78.9944 21.3411C78.2031 21.1267 77.3704 21.117 76.5744 21.3128C76.2295 21.3923 75.9139 21.5671 75.6637 21.8174C75.4134 22.0676 75.2386 22.3832 75.1591 22.7281C74.9437 23.4699 74.9685 24.2608 75.2299 24.9877C75.5696 25.9312 76.329 26.3133 77.2725 26.4029C77.8639 26.4511 78.4592 26.3968 79.0321 26.2425C79.1406 26.2095 79.3671 25.9972 79.4048 26.2425C79.4425 26.4878 79.6029 26.7944 79.1689 26.8982C78.6503 27.0258 78.118 27.0891 77.5839 27.0869Z" fill="white"></path><path d="M38.7269 11.3728C38.7269 12.538 38.7269 13.7032 38.7269 14.8637C38.7269 15.1844 38.6656 15.3024 38.3165 15.2977C37.3447 15.2977 37.3447 15.2977 37.3447 14.3259C37.3447 12.1889 37.3447 10.0802 37.3447 7.91964C37.3447 7.53282 37.4155 7.39601 37.8165 7.41016C38.708 7.44319 38.708 7.41017 38.708 8.31119L38.7269 11.3728Z" fill="white"></path><path d="M98.8267 24.6517C98.8267 22.6609 100.582 21.6042 102.369 22.5194C102.749 22.701 103.043 23.0222 103.19 23.4157C103.504 24.213 103.504 25.0997 103.19 25.8971C103.104 26.1305 102.965 26.3409 102.784 26.5119C102.603 26.6829 102.386 26.8099 102.148 26.883C101.492 27.1165 100.775 27.1165 100.119 26.883C99.2559 26.5905 98.8267 25.831 98.8267 24.6517ZM99.6805 24.779C99.6488 25.0721 99.7061 25.3679 99.8449 25.6279C99.9838 25.8879 100.198 26.1 100.459 26.2367C100.788 26.3936 101.165 26.4215 101.514 26.315C101.863 26.2085 102.16 25.9753 102.346 25.6612C102.785 24.746 102.502 23.4251 101.799 23.0902C101.756 23.0689 101.712 23.0515 101.667 23.0383C100.534 22.6326 99.6852 23.3072 99.6805 24.779Z" fill="white"></path><path d="M142.977 23.9734V21.7657C142.977 21.6383 142.977 21.4873 143.156 21.4968C143.335 21.5062 143.529 21.4071 143.538 21.6477C143.576 22.4119 144.113 22.2799 144.59 22.2704C144.793 22.2704 145 22.2138 145 22.5535C145 22.8931 144.925 22.9592 144.604 22.9544C143.826 22.9544 143.826 22.9544 143.826 23.7611C143.826 24.3838 143.826 25.0065 143.826 25.6481C143.826 26.2897 143.996 26.384 144.581 26.384C144.859 26.384 145.01 26.4123 145.005 26.7661C145 27.1199 144.807 27.0963 144.576 27.0869C144.345 27.0775 144.156 27.0869 143.953 27.0869C143.713 27.0874 143.482 26.9965 143.307 26.8326C143.131 26.6687 143.025 26.4442 143.01 26.2047C142.951 25.4624 142.94 24.7171 142.977 23.9734Z" fill="white"></path><path d="M140.849 23.7605C140.849 22.8171 140.849 21.8453 140.849 20.8876C140.849 20.5055 141.038 20.5338 141.292 20.5291C141.547 20.5244 141.726 20.5291 141.726 20.8924C141.703 22.8359 141.726 24.7842 141.726 26.7278C141.726 27.0769 141.561 27.0769 141.316 27.0627C141.071 27.0486 140.844 27.1335 140.844 26.7278C140.868 25.7371 140.849 24.7465 140.849 23.7605Z" fill="white"></path><path d="M151.737 22.8315C152.064 22.5402 152.469 22.3501 152.902 22.2843C153.043 22.2843 153.265 22.1946 153.232 22.473C153.209 22.6522 153.393 22.9447 153.001 22.9777C152.873 22.9903 152.746 23.0172 152.624 23.0579C152.501 23.0734 152.383 23.1134 152.276 23.1757C152.17 23.2381 152.077 23.3213 152.003 23.4205C151.93 23.5196 151.877 23.6327 151.848 23.7528C151.819 23.8729 151.815 23.9976 151.836 24.1193C151.836 24.9496 151.836 25.7799 151.836 26.6101C151.836 26.9498 151.77 27.0819 151.392 27.0819C151.015 27.0819 150.973 26.8979 150.973 26.6101C150.973 25.3175 150.973 24.0203 150.973 22.7277C150.973 22.572 150.831 22.3267 151.161 22.2843C151.491 22.2418 151.633 22.355 151.633 22.6522C151.66 22.7163 151.694 22.7765 151.737 22.8315Z" fill="white"></path><path d="M133.561 22.8213C133.89 22.5352 134.294 22.3487 134.726 22.2835C134.877 22.2835 135.089 22.2127 135.051 22.4769C135.028 22.6467 135.212 22.9156 134.858 22.9486C134.714 22.9672 134.572 22.9971 134.433 23.0383C134.189 23.0767 133.97 23.2095 133.822 23.408C133.675 23.6064 133.612 23.8548 133.645 24.0997C133.645 24.9299 133.645 25.7602 133.645 26.5905C133.645 26.9301 133.584 27.0622 133.207 27.0622C132.829 27.0622 132.792 26.8735 132.792 26.5905C132.792 25.2979 132.792 24.0053 132.792 22.7128C132.792 22.5571 132.66 22.3118 132.985 22.2693C133.311 22.2269 133.457 22.3401 133.457 22.642C133.482 22.7067 133.517 22.7671 133.561 22.8213Z" fill="white"></path><path d="M125.343 24.6239C125.343 23.954 125.343 23.2841 125.343 22.6143C125.343 22.2841 125.475 22.2416 125.739 22.2652C126.003 22.2888 126.211 22.185 126.211 22.5954C126.189 23.9697 126.189 25.3425 126.211 26.7137C126.211 27.1052 125.999 27.0486 125.739 27.0675C125.48 27.0864 125.31 27.025 125.324 26.6854C125.362 25.9966 125.343 25.3126 125.343 24.6239Z" fill="white"></path><path d="M92.1043 4.92871C92.8402 4.92871 92.8402 4.92871 92.8402 5.65991C92.8402 6.27317 92.8402 6.27317 91.9958 6.27317C91.4155 6.27317 91.4155 6.27316 91.4155 5.49951C91.4155 4.92871 91.4155 4.92871 92.1043 4.92871Z" fill="white"></path><path d="M38.024 5.89127C37.3447 5.89127 37.3447 5.89127 37.3447 5.20725C37.3447 4.52323 37.3447 4.57512 38.1278 4.57512C38.7269 4.57512 38.7269 4.57512 38.7269 5.33934C38.7269 5.89127 38.7269 5.89127 38.024 5.89127Z" fill="white"></path><path d="M125.772 21.312C125.442 21.3922 125.328 21.2695 125.333 20.9251C125.338 20.5808 125.418 20.5053 125.734 20.5242C126.05 20.543 126.206 20.5242 126.206 20.911C126.206 21.2978 126.121 21.3969 125.772 21.312Z" fill="white"></path></svg>