<svg xmlns="http://www.w3.org/2000/svg" width="1459" height="437" viewBox="0 0 1459 437" fill="none"><g opacity="0.5"><mask id="mask0_807_2064" style="mask-type:alpha" maskUnits="userSpaceOnUse" x="0" y="0" width="1459" height="437"><rect x="1458.82" y="436.512" width="1458.72" height="435.753" transform="rotate(-180 1458.82 436.512)" fill="#C4C4C4"></rect></mask><g mask="url(#mask0_807_2064)"><path d="M894.551 -8.32872L660.636 434.392L661.126 434.54L895.041 -8.18076L894.551 -8.32872Z" fill="#E41038"></path><path d="M679.88 434.705L678.694 434.358L911.869 -8.46865L913.056 -8.12173L679.88 434.705Z" fill="#E21038"></path><path d="M698.457 434.806L696.564 434.259L929.349 -8.56777L931.242 -8.01748L698.457 434.806Z" fill="#E11038"></path><path d="M717.028 434.904L714.439 434.159L946.834 -8.66836L949.423 -7.91868L717.028 434.904Z" fill="#DF1138"></path><path d="M735.605 435.005L732.314 434.059L964.314 -8.76748L967.605 -7.81842L735.605 435.005Z" fill="#DE1138"></path><path d="M754.176 435.104L750.184 433.959L981.799 -8.86758L985.786 -7.71914L754.176 435.104Z" fill="#DC1138"></path><path d="M772.753 435.208L768.06 433.86L999.28 -8.9667L1003.97 -7.61888L772.753 435.208Z" fill="#DA1139"></path><path d="M791.324 435.307L785.935 433.76L1016.76 -9.0668L1022.15 -7.51959L791.324 435.307Z" fill="#D91239"></path><path d="M809.9 435.407L803.805 433.657L1034.24 -9.16641L1040.33 -7.41982L809.9 435.407Z" fill="#D71239"></path><path d="M828.472 435.507L821.681 433.557L1051.72 -9.26553L1058.52 -7.31956L828.472 435.507Z" fill="#D51239"></path><path d="M847.043 435.607L839.556 433.457L1069.21 -9.36563L1076.7 -7.22028L847.043 435.607Z" fill="#D41239"></path><path d="M865.62 435.707L857.426 433.358L1086.69 -9.46914L1094.88 -7.12042L865.62 435.707Z" fill="#D21239"></path><path d="M884.191 435.805L875.301 433.257L1104.17 -9.56973L1113.06 -7.02163L884.191 435.805Z" fill="#D11339"></path><path d="M902.768 435.906L893.176 433.158L1121.65 -9.66885L1131.25 -6.92136L902.768 435.906Z" fill="#CF1339"></path><path d="M921.339 436.005L911.046 433.059L1139.14 -9.76846L1149.43 -6.82159L921.339 436.005Z" fill="#CD1339"></path><path d="M939.916 436.106L928.922 432.959L1156.62 -9.86758L1167.61 -6.71734L939.916 436.106Z" fill="#CC1339"></path><path d="M958.488 436.205L946.798 432.859L1174.1 -9.96768L1185.79 -6.61806L958.488 436.205Z" fill="#CA143A"></path><path d="M977.059 436.305L964.667 432.76L1191.58 -10.0673L1203.98 -6.51829L977.059 436.305Z" fill="#C9143A"></path><path d="M995.636 436.405L982.543 432.66L1209.07 -10.1669L1222.16 -6.41851L995.636 436.405Z" fill="#C7143A"></path><path d="M1014.21 436.509L1000.42 432.561L1226.55 -10.266L1240.34 -6.31825L1014.21 436.509Z" fill="#C5143A"></path><path d="M1032.78 436.607L1018.29 432.46L1244.03 -10.3671L1258.52 -6.21995L1032.78 436.607Z" fill="#C4153A"></path><path d="M1051.35 436.707L1036.16 432.361L1261.51 -10.4662L1276.71 -6.11968L1051.35 436.707Z" fill="#C2153A"></path><path d="M1069.93 436.807L1054.04 432.257L1279 -10.5658L1294.89 -6.01991L1069.93 436.807Z" fill="#C1153A"></path><path d="M1088.5 436.907L1071.91 432.158L1296.48 -10.6649L1313.07 -5.91965L1088.5 436.907Z" fill="#BF153A"></path><path d="M1107.08 437.007L1089.78 432.058L1313.96 -10.769L1331.25 -5.82029L1107.08 437.007Z" fill="#BD153A"></path><path d="M1125.65 437.106L1107.66 431.958L1331.44 -10.869L1349.43 -5.721L1125.65 437.106Z" fill="#BC163A"></path><path d="M1144.22 437.206L1125.53 431.859L1348.92 -10.9682L1367.62 -5.62074L1144.22 437.206Z" fill="#BA163B"></path><path d="M1162.8 437.306L1143.4 431.759L1366.41 -11.0683L1385.8 -5.52146L1162.8 437.306Z" fill="#B8163B"></path><path d="M1181.37 437.405L1161.28 431.659L1383.89 -11.1679L1403.98 -5.41769L1181.37 437.405Z" fill="#B7163B"></path><path d="M1199.95 437.505L1179.15 431.56L1401.37 -11.2675L1422.16 -5.31792L1199.95 437.505Z" fill="#B5173B"></path><path d="M1418.78 -11.3184L1197.24 431.589L1218.74 437.738L1440.28 -5.17006L1418.78 -11.3184Z" fill="#B4173B"></path><path d="M1436.46 -11.3502L1214.97 431.46L1237.16 437.809L1458.65 -5.00149L1436.46 -11.3502Z" fill="#B2173B"></path><path d="M566.071 -8.44659L565.581 -8.29883L799.19 434.515L799.68 434.367L566.071 -8.44659Z" fill="#E41038"></path><path d="M780.483 434.705L547.307 -8.12183L548.494 -8.46875L781.669 434.358L780.483 434.705Z" fill="#E21038"></path><path d="M761.853 434.806L529.068 -8.01758L530.956 -8.56787L763.741 434.259L761.853 434.806Z" fill="#E11038"></path><path d="M743.224 434.904L510.829 -7.91878L513.423 -8.66846L745.813 434.159L743.224 434.904Z" fill="#DF1138"></path><path d="M724.595 435.005L492.595 -7.81852L495.885 -8.76758L727.885 434.06L724.595 435.005Z" fill="#DE1138"></path><path d="M705.965 435.104L474.356 -7.71924L478.347 -8.86767L709.957 433.96L705.965 435.104Z" fill="#DC1138"></path><path d="M687.336 435.208L456.116 -7.61898L460.809 -8.96679L692.029 433.86L687.336 435.208Z" fill="#DA1139"></path><path d="M668.706 435.307L437.877 -7.51969L443.271 -9.06689L674.095 433.76L668.706 435.307Z" fill="#D91239"></path><path d="M650.077 435.407L419.638 -7.42041L425.734 -9.16699L656.167 433.656L650.077 435.407Z" fill="#D71239"></path><path d="M631.448 435.507L401.404 -7.32015L408.196 -9.26611L638.239 433.557L631.448 435.507Z" fill="#D51239"></path><path d="M612.818 435.607L383.165 -7.22037L390.658 -9.36572L620.311 433.457L612.818 435.607Z" fill="#D41239"></path><path d="M594.189 435.707L364.926 -7.12052L373.12 -9.46923L602.383 433.358L594.189 435.707Z" fill="#D21239"></path><path d="M575.559 435.806L346.687 -7.02172L355.582 -9.56982L584.45 433.257L575.559 435.806Z" fill="#D11339"></path><path d="M556.93 435.906L328.453 -6.92146L338.044 -9.66894L566.522 433.158L556.93 435.906Z" fill="#CF1339"></path><path d="M538.301 436.005L310.214 -6.82169L320.506 -9.76855L548.594 433.059L538.301 436.005Z" fill="#CD1339"></path><path d="M519.671 436.106L291.974 -6.71744L302.968 -9.86767L530.666 432.959L519.671 436.106Z" fill="#CC1339"></path><path d="M501.042 436.205L273.735 -6.61816L285.431 -9.96777L512.737 432.859L501.042 436.205Z" fill="#CA143A"></path><path d="M482.413 436.304L255.501 -6.51887L267.893 -10.0679L494.809 432.759L482.413 436.304Z" fill="#C9143A"></path><path d="M463.788 436.404L237.262 -6.4191L250.355 -10.1675L476.876 432.66L463.788 436.404Z" fill="#C7143A"></path><path d="M445.154 436.507L219.023 -6.31982L232.817 -10.2676L458.948 432.56L445.154 436.507Z" fill="#C5143A"></path><path d="M426.53 436.607L200.784 -6.22004L215.279 -10.3672L441.02 432.46L426.53 436.607Z" fill="#C4153A"></path><path d="M407.901 436.707L182.55 -6.11978L197.741 -10.4663L423.092 432.361L407.901 436.707Z" fill="#C2153A"></path><path d="M389.271 436.807L164.311 -6.02001L180.203 -10.5659L405.164 432.257L389.271 436.807Z" fill="#C1153A"></path><path d="M370.642 436.907L146.072 -5.91975L162.666 -10.665L387.236 432.158L370.642 436.907Z" fill="#BF153A"></path><path d="M352.012 437.006L127.832 -5.82087L145.128 -10.7695L369.302 432.058L352.012 437.006Z" fill="#BD153A"></path><path d="M333.383 437.106L109.598 -5.7211L127.59 -10.8691L351.374 431.958L333.383 437.106Z" fill="#BC163A"></path><path d="M314.754 437.206L91.3594 -5.62084L110.052 -10.9683L333.446 431.859L314.754 437.206Z" fill="#BA163B"></path><path d="M296.124 437.306L73.1201 -5.52156L92.5141 -11.0684L315.518 431.759L296.124 437.306Z" fill="#B8163B"></path><path d="M277.495 437.406L54.8811 -5.41779L74.9764 -11.168L297.59 431.659L277.495 437.406Z" fill="#B7163B"></path><path d="M258.865 437.504L36.6416 -5.319L57.4382 -11.2685L279.657 431.559L258.865 437.504Z" fill="#B5173B"></path><path d="M39.9185 -11.3957L18.4294 -5.23877L240.276 437.582L261.765 431.425L39.9185 -11.3957Z" fill="#B4173B"></path><path d="M22.2998 -11.4044L0.104736 -5.05859L221.494 437.782L243.689 431.436L22.2998 -11.4044Z" fill="#B2173B"></path></g></g></svg>