<svg xmlns="http://www.w3.org/2000/svg" width="23" height="25" viewBox="0 0 23 25" fill="none"><path fill-rule="evenodd" clip-rule="evenodd" d="M13.5825 14.0307C14.0736 13.5073 14.3191 12.8758 14.3191 12.1361C14.3191 11.3964 14.0736 10.7649 13.5825 10.2415C13.0914 9.71812 12.4989 9.45644 11.8048 9.45644C11.1108 9.45644 10.5182 9.71812 10.0271 10.2415C9.53607 10.7649 9.29053 11.3964 9.29053 12.1361C9.29053 12.8758 9.53607 13.5073 10.0271 14.0307C10.5182 14.554 11.1108 14.8157 11.8048 14.8157C12.4989 14.8157 13.0914 14.554 13.5825 14.0307ZM14.545 9.21569C15.298 10.0182 15.6745 10.9916 15.6745 12.1361C15.6745 13.2805 15.298 14.254 14.545 15.0565C13.792 15.859 12.8786 16.2602 11.8048 16.2602C10.731 16.2602 9.81762 15.859 9.06464 15.0565C8.31166 14.254 7.93518 13.2805 7.93518 12.1361C7.93518 10.9916 8.31166 10.0182 9.06464 9.21569C9.81762 8.41319 10.731 8.01195 11.8048 8.01195C12.8786 8.01195 13.792 8.41319 14.545 9.21569ZM16.47 7.16409C16.6468 7.35251 16.7352 7.5793 16.7352 7.84447C16.7352 8.10964 16.6468 8.33643 16.47 8.52485C16.2932 8.71326 16.0804 8.80747 15.8316 8.80747C15.5828 8.80747 15.37 8.71326 15.1932 8.52485C15.0164 8.33643 14.928 8.10964 14.928 7.84447C14.928 7.5793 15.0164 7.35251 15.1932 7.16409C15.37 6.97568 15.5828 6.88148 15.8316 6.88148C16.0804 6.88148 16.2932 6.97568 16.47 7.16409ZM12.5512 5.54166H11.8048C11.759 5.54166 11.5085 5.53992 11.0535 5.53643C10.5984 5.53294 10.253 5.53294 10.0173 5.53643C9.78161 5.53992 9.46569 5.55038 9.06955 5.56783C8.67342 5.58527 8.33622 5.62016 8.05795 5.6725C7.77967 5.72484 7.5456 5.78939 7.35571 5.86615C7.02833 6.00571 6.74024 6.20808 6.49143 6.47325C6.24262 6.73843 6.05274 7.04546 5.92179 7.39438C5.84976 7.59675 5.7892 7.84621 5.74009 8.14279C5.69098 8.43937 5.65824 8.79874 5.64188 9.22092C5.62551 9.64311 5.61568 9.9798 5.61241 10.231C5.60914 10.4822 5.60914 10.8503 5.61241 11.3353C5.61568 11.8203 5.61732 12.0872 5.61732 12.1361C5.61732 12.1849 5.61568 12.4518 5.61241 12.9368C5.60914 13.4218 5.60914 13.7899 5.61241 14.0411C5.61568 14.2923 5.62551 14.629 5.64188 15.0512C5.65824 15.4734 5.69098 15.8328 5.74009 16.1294C5.7892 16.4259 5.84976 16.6754 5.92179 16.8778C6.05274 17.2267 6.24262 17.5337 6.49143 17.7989C6.74024 18.0641 7.02833 18.2664 7.35571 18.406C7.5456 18.4828 7.77967 18.5473 8.05795 18.5996C8.33622 18.652 8.67342 18.6869 9.06955 18.7043C9.46569 18.7218 9.78161 18.7322 10.0173 18.7357C10.253 18.7392 10.5984 18.7392 11.0535 18.7357C11.5085 18.7322 11.759 18.7305 11.8048 18.7305C11.8507 18.7305 12.1011 18.7322 12.5562 18.7357C13.0112 18.7392 13.3566 18.7392 13.5923 18.7357C13.828 18.7322 14.144 18.7218 14.5401 18.7043C14.9362 18.6869 15.2734 18.652 15.5517 18.5996C15.83 18.5473 16.064 18.4828 16.2539 18.406C16.5813 18.2664 16.8694 18.0641 17.1182 17.7989C17.367 17.5337 17.5569 17.2267 17.6879 16.8778C17.7599 16.6754 17.8204 16.4259 17.8696 16.1294C17.9187 15.8328 17.9514 15.4734 17.9678 15.0512C17.9841 14.629 17.994 14.2923 17.9972 14.0411C18.0005 13.7899 18.0005 13.4218 17.9972 12.9368C17.994 12.4518 17.9923 12.1849 17.9923 12.1361C17.9923 12.0872 17.994 11.8203 17.9972 11.3353C18.0005 10.8503 18.0005 10.4822 17.9972 10.231C17.994 9.9798 17.9841 9.64311 17.9678 9.22092C17.9514 8.79874 17.9187 8.43937 17.8696 8.14279C17.8204 7.84621 17.7599 7.59675 17.6879 7.39438C17.5569 7.04546 17.367 6.73843 17.1182 6.47325C16.8694 6.20808 16.5813 6.00571 16.2539 5.86615C16.064 5.78939 15.83 5.72484 15.5517 5.6725C15.2734 5.62016 14.9362 5.58527 14.5401 5.56783C14.144 5.55038 13.828 5.53992 13.5923 5.53643C13.3566 5.53294 13.0096 5.53468 12.5512 5.54166ZM19.2986 8.81793C19.3313 9.43202 19.3477 10.5381 19.3477 12.1361C19.3477 13.7341 19.3313 14.8401 19.2986 15.4542C19.2331 16.9057 18.8271 18.0292 18.0807 18.8247C17.3343 19.6202 16.2801 20.0529 14.9182 20.1226C14.342 20.1575 13.3042 20.175 11.8048 20.175C10.3054 20.175 9.26762 20.1575 8.69143 20.1226C7.32952 20.0529 6.27536 19.6202 5.52893 18.8247C4.78249 18.0292 4.37655 16.9057 4.31107 15.4542C4.27833 14.8401 4.26196 13.7341 4.26196 12.1361C4.26196 10.5381 4.27833 9.43202 4.31107 8.81793C4.37655 7.36646 4.78249 6.24297 5.52893 5.44745C6.27536 4.65193 7.32952 4.21929 8.69143 4.1495C9.26762 4.11461 10.3054 4.09717 11.8048 4.09717C13.3042 4.09717 14.342 4.11461 14.9182 4.1495C16.2801 4.21929 17.3343 4.65193 18.0807 5.44745C18.8271 6.24297 19.2331 7.36646 19.2986 8.81793Z" fill="white"></path></svg>