<svg xmlns="http://www.w3.org/2000/svg" width="23" height="25" viewBox="0 0 23 25" fill="none"><path fill-rule="evenodd" clip-rule="evenodd" d="M19.7012 7.53049C19.2625 8.21435 18.7322 8.79703 18.1102 9.27853C18.1167 9.37623 18.12 9.52277 18.12 9.71816C18.12 10.6253 17.9956 11.5307 17.7468 12.4344C17.498 13.3381 17.1198 14.2051 16.6124 15.0356C16.1049 15.866 15.5009 16.6004 14.8003 17.2389C14.0997 17.8774 13.2551 18.3868 12.2664 18.7672C11.2777 19.1475 10.2203 19.3376 9.09408 19.3376C7.31967 19.3376 5.69588 18.8317 4.22266 17.8199C4.45182 17.8478 4.70718 17.8617 4.98873 17.8617C6.46195 17.8617 7.77473 17.3802 8.92712 16.4172C8.23962 16.4033 7.62415 16.1782 7.08069 15.7421C6.53724 15.306 6.16403 14.7495 5.96105 14.0726C6.17712 14.1075 6.37682 14.1249 6.56016 14.1249C6.84171 14.1249 7.11998 14.0865 7.39498 14.0098C6.66164 13.8493 6.05436 13.4602 5.5731 12.8427C5.09185 12.2251 4.85123 11.5081 4.85123 10.6916V10.6497C5.29647 10.9149 5.77444 11.058 6.28516 11.0789C5.85301 10.7719 5.50926 10.3706 5.25391 9.87517C4.99855 9.37971 4.87087 8.84239 4.87087 8.2632C4.87087 7.64911 5.01492 7.08039 5.30301 6.55703C6.09528 7.59678 7.05941 8.42893 8.19542 9.05348C9.33144 9.67804 10.5476 10.0252 11.8441 10.095C11.7917 9.82981 11.7655 9.57162 11.7655 9.3204C11.7655 8.38531 12.0749 7.58806 12.6936 6.92862C13.3124 6.26917 14.0604 5.93945 14.9378 5.93945C15.8545 5.93945 16.6271 6.29534 17.2557 7.00712C17.9694 6.86058 18.6405 6.58843 19.2691 6.19067C19.0268 6.99317 18.5619 7.61422 17.8744 8.05385C18.4834 7.98407 19.0923 7.80962 19.7012 7.53049Z" fill="white"></path></svg>