<svg xmlns="http://www.w3.org/2000/svg" width="18" height="13" viewBox="0 0 18 13" fill="none"><path d="M0.961914 9.49256V4.18055C0.990527 4.01828 1.01016 3.85049 1.04908 3.68887C1.44401 2.05061 2.82376 0.978666 4.55019 0.977043C7.82627 0.973798 11.1026 0.973798 14.3791 0.977043C14.6504 0.972881 14.9213 0.999565 15.1863 1.05655C16.8461 1.43821 17.9477 2.78114 17.9571 4.44796C17.9654 6.04014 17.9614 7.63297 17.9571 9.22547C17.9571 9.96282 17.7538 10.6456 17.3053 11.2438C16.579 12.2128 15.5912 12.6951 14.3618 12.6961C11.0966 12.6987 7.83137 12.6987 4.56616 12.6961C4.472 12.6961 4.37785 12.6941 4.28402 12.6896C2.91326 12.6221 1.66693 11.7202 1.19182 10.4646C1.07271 10.1488 1.02613 9.81905 0.961914 9.49256ZM7.12536 6.83688C7.12536 7.54329 7.12536 8.24991 7.12536 8.95675C7.12536 9.24884 7.23516 9.31699 7.50532 9.19139L11.946 7.12539C12.0418 7.08061 12.1456 7.03647 12.1503 6.91542C12.1546 6.7856 12.0458 6.73757 11.9457 6.68824C10.4629 5.95565 8.98 5.22317 7.497 4.4908C7.24248 4.36488 7.12603 4.43596 7.12569 4.71798C7.12481 5.42417 7.1247 6.13047 7.12536 6.83688Z" fill="white"></path></svg>