<svg xmlns="http://www.w3.org/2000/svg" width="1323" height="370" viewBox="0 0 1323 370" fill="none"><path d="M205.611 152.762H233.262V144.537H205.611V136.992H236.247V128.427H195.136V168.475H205.611V152.762Z" fill="#F3EDE4"></path><path d="M205.611 214.026H233.262V205.801H205.611V198.2H236.247V189.634H195.136V229.682H205.611V214.026Z" fill="#F3EDE4"></path><path d="M172.553 221.117H139.946V213.345H168.104V205.12H139.946V198.2H172.215V189.634H129.471V229.682H172.553V221.117Z" fill="#F3EDE4"></path><path d="M164.555 154.237C166.921 153.216 168.61 151.854 169.736 150.153C171.144 147.997 171.876 145.388 171.876 142.325V141.984C171.876 137.673 170.412 134.326 167.54 132.001C164.612 129.618 160.388 128.427 154.813 128.427H129.526V168.475H139.438V155.712H154.362L161.739 168.475H173.735L164.612 154.237H164.555ZM161.908 142.211C161.908 143.913 161.289 145.161 159.994 145.955C158.698 146.749 156.671 147.146 153.911 147.146H139.382V137.049H154.475C157.122 137.049 159.036 137.446 160.163 138.184C161.345 138.921 161.908 140.169 161.908 141.928V142.268V142.211Z" fill="#F3EDE4"></path><path d="M165.063 111.298C135.817 107.229 110.156 93.6462 90.6964 74.1032C89.8429 73.2435 88.9894 72.3265 88.1359 71.4669C102.474 59.2023 118.577 50.1471 135.476 44.2441C145.831 52.153 158.292 57.5976 172.118 59.4888C193.74 62.469 214.565 56.2794 230.667 43.8429C247.68 49.574 263.839 58.5146 278.234 70.6645C250.24 100.81 208.647 117.316 165.006 111.241L165.063 111.298ZM293.938 278.818C294.735 279.621 295.531 280.366 296.328 281.168C308.504 266.726 317.494 250.507 323.298 233.485C311.178 217.323 305.204 196.577 308.106 174.971C310.04 160.872 315.56 148.149 323.639 137.604C317.949 120.468 309.073 104.191 297.011 89.6918C275.788 109.636 260.994 136.687 256.726 167.807C250.923 210.16 265.944 250.678 293.881 278.818H293.938ZM87.8514 298.304C102.133 310.568 118.121 319.681 134.963 325.584C151.066 313.147 171.891 306.901 193.569 309.938C207.794 311.887 220.596 317.618 231.179 325.928C248.078 320.139 264.18 311.199 278.519 299.049C258.718 277.5 231.691 262.485 200.681 258.129C157.268 252.111 115.846 268.445 87.8514 298.304ZM70.8957 88.8894C58.7194 103.332 49.7294 119.551 43.9257 136.629C55.9882 152.791 62.0195 173.538 59.1176 195.087C57.1831 209.185 51.6639 221.851 43.6412 232.396C49.3311 249.532 58.2073 265.809 70.2698 280.308C91.4929 260.421 106.287 233.313 110.554 202.193C116.528 158.637 100.426 117.029 70.9526 88.8321L70.8957 88.8894ZM183.669 370C82.3892 370 0 286.956 0 185C0 83.0437 82.3892 0 183.669 0C284.948 0 367.337 82.9864 367.337 185C367.337 287.014 284.948 370 183.669 370ZM346.968 185C346.968 94.5059 273.512 20.5173 183.669 20.5173C93.8258 20.5173 20.3697 94.5059 20.3697 185C20.3697 275.494 93.8258 349.483 183.669 349.483C273.512 349.483 346.968 275.494 346.968 185Z" fill="#F3EDE4"></path><path d="M490.237 0.139607H444.222V249.054H475.407V156.357H487.465C503.265 156.357 514.492 153.006 521.283 146.305C528.075 139.604 531.401 128.296 531.401 112.381V42.1605C531.401 26.5248 528.352 15.4961 522.253 9.35348C516.155 3.07129 505.483 0 490.098 0L490.237 0.139607ZM500.909 113.917C500.909 119.222 499.939 122.852 497.86 124.806C495.781 126.761 492.177 127.738 486.91 127.738H475.545V28.8981H488.989C493.563 28.8981 496.751 29.8753 498.414 31.9694C500.077 34.0634 501.048 37.6931 501.048 42.9981V113.917H500.909Z" fill="#F3EDE4"></path><path d="M652.676 122.295C656.834 116.292 658.913 107.218 658.913 94.9329V42.4417C658.913 26.806 655.864 15.7773 649.627 9.6347C643.39 3.49212 632.718 0.281219 617.333 0.281219H574.09V249.196H605.275V123.691H608.047L632.024 249.196H665.981L641.588 130.811C646.3 128.717 650.042 126.065 652.537 122.295H652.676ZM628.282 98.423C628.282 104.007 627.312 107.776 625.233 110.01C623.154 112.244 619.551 113.361 614.284 113.361H605.413V29.0397H616.363C620.937 29.0397 624.124 30.0169 625.788 31.9714C627.451 33.9258 628.421 37.6951 628.421 43.1397V98.423H628.282Z" fill="#F3EDE4"></path><path d="M735.281 0.138855H704.096V249.053H735.281V0.138855Z" fill="#F3EDE4"></path><path d="M878.177 0.138855L865.426 197.679L865.149 225.32H862.377L861.684 197.679L849.349 0.138855H791.968L775.198 249.193H807.076L820.52 49.2795L821.49 21.6379H824.262L825.232 49.2795L838.261 249.193H888.711L901.878 49.2795L903.125 21.6379H905.897L907.006 49.2795L920.034 249.193H952.328L935.142 0.138855H878.177Z" fill="#F3EDE4"></path><path d="M1023.01 125.364H1051.43V98.0014H1023.01V29.5954H1059.33V0.138855H991.69V249.193H1061.41V219.736H1023.01V125.364Z" fill="#F3EDE4"></path><path d="M1180.88 122.295C1185.04 116.292 1187.12 107.218 1187.12 94.9329V42.4417C1187.12 26.806 1184.07 15.7773 1177.83 9.6347C1171.59 3.49212 1160.92 0.281219 1145.54 0.281219H1102.29V249.196H1133.48V123.691H1136.25L1160.23 249.196H1194.18L1169.79 130.811C1174.5 128.717 1178.25 126.065 1180.74 122.295H1180.88ZM1156.49 98.423C1156.49 104.007 1155.52 107.776 1153.44 110.01C1151.36 112.244 1147.75 113.361 1142.49 113.361H1133.62V29.0397H1144.57C1149.14 29.0397 1152.33 30.0169 1153.99 31.9714C1155.65 33.9258 1156.62 37.6951 1156.62 43.1397V98.423H1156.49Z" fill="#F3EDE4"></path><path d="M1245.47 0.138855L1225.23 249.053H1256.14L1259.6 201.029H1286.08L1289.54 249.053H1322.53L1302.29 0.138855H1245.6H1245.47ZM1261.68 172.969L1270.55 50.2568L1271.52 21.9171H1274.29L1275.26 50.2568L1284 172.969H1261.54H1261.68Z" fill="#F3EDE4"></path><path d="M444.222 299.589H510.75V313.41H460.299V325.695H505.899V338.957H460.299V364.365H444.222V299.45V299.589Z" fill="#F3EDE4"></path><path d="M531.956 299.586H601.117V313.407H548.033V324.576H594.464V337.838H548.033V350.402H601.671V364.223H531.956V299.307V299.586Z" fill="#F3EDE4"></path><path d="M624.54 299.585H662.655C686.633 299.585 699.799 310.893 699.799 331.414V332.671C699.799 353.193 686.633 364.501 662.655 364.501H624.54V299.585V299.585ZM660.992 350.54C675.683 350.54 683.861 344.258 683.861 332.671V331.414C683.861 319.827 675.822 313.545 660.992 313.545H640.479V350.68H660.992V350.54Z" fill="#F3EDE4"></path><path d="M722.53 299.586H791.691V313.407H738.607V324.576H785.038V337.838H738.607V350.402H792.245V364.223H722.53V299.307V299.586Z" fill="#F3EDE4"></path><path d="M831.331 364.365H815.253V299.45H856.14C874.297 299.45 883.86 307.407 883.86 321.367V321.926C883.86 330.721 880.395 337.561 872.079 341.191L886.771 364.226H867.367L855.447 343.564H831.331V364.226V364.365ZM831.331 313.41V329.744H854.893C863.902 329.744 867.921 327.37 867.921 321.786V321.228C867.921 315.504 864.456 313.27 855.863 313.27H831.47L831.331 313.41Z" fill="#F3EDE4"></path><path d="M929.459 299.585H955.238L984.622 364.501H967.297L962.168 352.913H921.42L916.292 364.501H900.076L929.459 299.585ZM926.825 340.628H956.902L944.15 311.591L942.487 306.705H941.24L939.577 311.591L926.825 340.628V340.628Z" fill="#F3EDE4"></path><path d="M1069.17 341.336L1079.15 351.806C1069.44 361.299 1056.83 365.906 1040.48 365.906H1039.78C1013.73 365.906 995.986 352.225 995.986 332.261V331.563C995.986 311.6 1013.73 297.919 1039.78 297.919H1040.48C1056.42 297.919 1068.47 302.247 1078.45 311.46L1068.61 321.931C1060.16 314.671 1052.4 311.879 1040.48 311.879H1039.78C1023.01 311.879 1012.06 319.697 1012.06 331.843V332.401C1012.06 344.407 1023.01 352.364 1039.78 352.364H1040.48C1051.7 352.364 1061.41 348.735 1069.17 341.615V341.336Z" fill="#F3EDE4"></path><path d="M1099.38 299.585H1115.46V364.501H1099.38V299.585Z" fill="#F3EDE4"></path><path d="M1137.64 332.396V331.698C1137.64 311.595 1154.68 297.914 1179.63 297.914H1180.32C1205.27 297.914 1222.32 311.455 1222.32 331.419V332.675C1222.32 352.499 1205.27 366.041 1180.32 366.041H1179.63C1154.68 366.041 1137.64 352.499 1137.64 332.396ZM1153.71 331.698V332.256C1153.71 344.262 1163.97 352.08 1179.63 352.08H1180.32C1195.99 352.08 1206.24 344.262 1206.24 332.256V331.698C1206.24 319.692 1195.99 311.735 1180.32 311.735H1179.63C1163.97 311.735 1153.71 319.692 1153.71 331.698ZM1202.36 274.46L1187.81 289.258H1173.53L1183.23 274.46H1202.22H1202.36Z" fill="#F3EDE4"></path><path d="M1322.25 364.363H1291.9L1265.7 315.362L1261.54 306.287H1260.85V364.223H1244.77V299.307H1275.13L1301.32 348.308L1305.48 357.382H1306.17V299.447H1322.25V364.363Z" fill="#F3EDE4"></path></svg>